<svg xmlns="http://www.w3.org/2000/svg" width="23.16" height="24.616" viewBox="0 0 23.16 24.616"><defs><style>.a{fill:#fd6a80;}</style></defs><g transform="translate(-1.354)"><g transform="translate(1.354 0)"><path class="a" d="M3.358,7.387a10.136,10.136,0,0,1,6.088-4.3.624.624,0,0,0,.382-.938A4.586,4.586,0,1,0,2.346,7.433a.625.625,0,0,0,1.012-.046Z" transform="translate(-1.354 0)"/><path class="a" d="M32.473,0A4.577,4.577,0,0,0,28.6,2.137a.624.624,0,0,0,.385.941A10.129,10.129,0,0,1,35.1,7.342a.625.625,0,0,0,1.015.036A4.584,4.584,0,0,0,32.473,0Z" transform="translate(-13.903 0)"/><path class="a" d="M24.373,17.443A10.11,10.11,0,1,0,7.565,24.994l-.852,1.2a1.148,1.148,0,1,0,1.871,1.329l.851-1.2a10.091,10.091,0,0,0,9.656,0l.851,1.2a1.148,1.148,0,0,0,1.871-1.329l-.852-1.2A10.076,10.076,0,0,0,24.373,17.443ZM14.264,24.725a7.281,7.281,0,1,1,7.282-7.283A7.29,7.29,0,0,1,14.264,24.725Z" transform="translate(-2.648 -3.389)"/><path class="a" d="M25.862,23.42,23.084,21.7a1.327,1.327,0,0,0-.48-.8l.127-3.486a.807.807,0,0,0-1.612-.059l-.127,3.49a1.34,1.34,0,0,0,1.359,2.3l2.665,1.647a.807.807,0,1,0,.848-1.374Z" transform="translate(-10.166 -7.663)"/></g></g></svg>