<svg xmlns="http://www.w3.org/2000/svg" width="46.978" height="24.516" viewBox="0 0 46.978 24.516"><defs><style>.a{fill:#fd6a80;}</style></defs><path class="a" d="M19.321,29.181A12.535,12.535,0,0,0,6.8,16.661H3.5V32.823H4.66a5.65,5.65,0,0,1,11.066,0h3.6Z" transform="translate(27.657 -12.812)"/><path class="a" d="M11.895,35.553a3.36,3.36,0,1,0-3.36-3.36A3.362,3.362,0,0,0,11.895,35.553Z" transform="translate(25.955 -11.037)"/><path class="a" d="M37.664,35.553a3.36,3.36,0,1,0-3.36-3.36A3.362,3.362,0,0,0,37.664,35.553Z" transform="translate(-29.34 -11.037)"/><path class="a" d="M19.308,33.314H22.1a5.649,5.649,0,0,1,11.065,0H48.173V15.594A2.293,2.293,0,0,0,45.882,13.3H21.6a2.292,2.292,0,0,0-2.292,2.292Z" transform="translate(-19.308 -13.302)"/></svg>