<svg xmlns="http://www.w3.org/2000/svg" width="34" height="34" viewBox="0 0 34 34"><defs><style>.a{fill:#fff;stroke:#d6cacc;}.b{fill:#3c5a99;fill-rule:evenodd;}.c{stroke:none;}.d{fill:none;}</style></defs><g class="a" transform="translate(0)"><circle class="c" cx="17" cy="17" r="17"/><circle class="d" cx="17" cy="17" r="16.5"/></g><path class="b" d="M285.449,544.19v9.2a.22.22,0,0,0,.218.222h3.372a.22.22,0,0,0,.218-.222v-9.368H291.7a.22.22,0,0,0,.218-.222l.218-2.827a.225.225,0,0,0-.041-.194.216.216,0,0,0-.177-.083h-2.665v-2a.824.824,0,0,1,.816-.832h1.849a.22.22,0,0,0,.218-.222v-2.827a.22.22,0,0,0-.218-.222h-3.155a3.405,3.405,0,0,0-3.372,3.437v2.716h-1.577a.22.22,0,0,0-.218.222V543.8a.22.22,0,0,0,.218.222h1.632Z" transform="translate(-270.66 -526.632)"/></svg>