<svg xmlns="http://www.w3.org/2000/svg" width="7.187" height="15.689" viewBox="0 0 7.187 15.689"><defs><style>.a{fill:#3b5999;fill-rule:evenodd;}</style></defs><path class="a" d="M285.155,542.513v7.593a.183.183,0,0,0,.183.183h2.836a.183.183,0,0,0,.183-.183v-7.73h2.058a.183.183,0,0,0,.183-.183l.183-2.333a.183.183,0,0,0-.183-.229h-2.241v-1.647a.686.686,0,0,1,.686-.686H290.6a.183.183,0,0,0,.183-.183v-2.333a.183.183,0,0,0-.183-.183h-2.653a2.836,2.836,0,0,0-2.836,2.836v2.241h-1.326a.183.183,0,0,0-.183.183v2.333a.183.183,0,0,0,.183.183h1.372Z" transform="translate(-283.6 -534.6)"/></svg>