<svg xmlns="http://www.w3.org/2000/svg" width="35" height="35" viewBox="0 0 35 35"><defs><style>.a{fill:#707070;stroke:#707070;stroke-width:2px;}.b,.e{fill:none;}.b{stroke:#fff;}.c{fill:#fff;fill-rule:evenodd;}.d{stroke:none;}</style></defs><g transform="translate(-44 -861)"><g transform="translate(-2 140)"><g class="a" transform="translate(46 721)"><circle class="d" cx="17.5" cy="17.5" r="17.5"/><circle class="e" cx="17.5" cy="17.5" r="16.5"/></g><g class="b" transform="translate(47 722)"><circle class="d" cx="16.5" cy="16.5" r="16.5"/><circle class="e" cx="16.5" cy="16.5" r="16"/></g></g><path class="c" d="M285.017,541.812v6.92a.167.167,0,0,0,.167.167h2.585a.167.167,0,0,0,.167-.167v-7.045h1.876a.167.167,0,0,0,.167-.167l.167-2.126a.167.167,0,0,0-.167-.208h-2.043v-1.5a.625.625,0,0,1,.625-.625h1.417a.167.167,0,0,0,.167-.167v-2.126a.167.167,0,0,0-.167-.167H287.56a2.585,2.585,0,0,0-2.585,2.585v2.043h-1.209a.167.167,0,0,0-.167.167v2.126a.167.167,0,0,0,.167.167h1.251Z" transform="translate(-225.6 336.4)"/></g></svg>