<svg xmlns="http://www.w3.org/2000/svg" width="35" height="35" viewBox="0 0 35 35"><defs><style>.a{fill:#e33d78;stroke:#e33d78;stroke-width:2px;}.b,.e{fill:none;}.b{stroke:#fff;}.c{fill:#fff;}.d{stroke:none;}</style></defs><g transform="translate(-44 -1301)"><g transform="translate(-2 580)"><g class="a" transform="translate(46 721)"><circle class="d" cx="17.5" cy="17.5" r="17.5"/><circle class="e" cx="17.5" cy="17.5" r="16.5"/></g><g class="b" transform="translate(47 722)"><circle class="d" cx="16.5" cy="16.5" r="16.5"/><circle class="e" cx="16.5" cy="16.5" r="16"/></g></g><path class="c" d="M338.882,536.9a.891.891,0,1,0,.891.891A.891.891,0,0,0,338.882,536.9Zm-3.988,1.146a3.733,3.733,0,1,0,3.733,3.733,3.776,3.776,0,0,0-3.691-3.733Zm0,6.151a2.4,2.4,0,1,1,.042,0Zm7.594-5.515a4.582,4.582,0,0,0-4.582-4.582h-6.024a4.582,4.582,0,0,0-4.582,4.582v6.024a4.582,4.582,0,0,0,4.582,4.624h6.024a4.582,4.582,0,0,0,4.582-4.582Zm-1.442,6.024a3.139,3.139,0,0,1-3.139,3.139h-6.024a3.139,3.139,0,0,1-3.139-3.139v-6.024a3.139,3.139,0,0,1,3.139-3.139h6.024a3.139,3.139,0,0,1,3.139,3.139Z" transform="translate(-273.3 776.9)"/></g></svg>