<svg xmlns="http://www.w3.org/2000/svg" xmlns:xlink="http://www.w3.org/1999/xlink" width="15.517" height="15.56" viewBox="0 0 15.517 15.56"><defs><style>.a{fill:url(#a);}</style><linearGradient id="a" x1="0.03" y1="0.899" x2="1.474" y2="-0.327" gradientUnits="objectBoundingBox"><stop offset="0" stop-color="#fbe18a"/><stop offset="0.21" stop-color="#fcbb45"/><stop offset="0.38" stop-color="#f75274"/><stop offset="0.52" stop-color="#d53692"/><stop offset="0.74" stop-color="#8f39ce"/><stop offset="1" stop-color="#5b4fe9"/></linearGradient></defs><path class="a" d="M339.133,536.961a.91.91,0,1,0,.91.91A.91.91,0,0,0,339.133,536.961Zm-4.074,1.17a3.814,3.814,0,1,0,3.814,3.814,3.857,3.857,0,0,0-3.771-3.814Zm0,6.285a2.449,2.449,0,1,1,.043,0Zm7.759-5.635a4.681,4.681,0,0,0-4.681-4.681h-6.155a4.681,4.681,0,0,0-4.681,4.681v6.155a4.681,4.681,0,0,0,4.681,4.724h6.155a4.681,4.681,0,0,0,4.681-4.681Zm-1.474,6.155a3.207,3.207,0,0,1-3.207,3.207h-6.155a3.207,3.207,0,0,1-3.208-3.207v-6.155a3.207,3.207,0,0,1,3.207-3.207h6.155a3.207,3.207,0,0,1,3.207,3.207Z" transform="translate(-327.3 -534.1)"/></svg>