<svg xmlns="http://www.w3.org/2000/svg" width="35" height="35" viewBox="0 0 35 35"><defs><style>.a{fill:#fe5c75;stroke:#fe5c75;stroke-width:2px;}.b,.e{fill:none;}.b{stroke:#fff;}.c{fill:#fff;}.d{stroke:none;}</style></defs><g transform="translate(-44 -1161)"><g transform="translate(-2.473 439.527)"><g class="a" transform="translate(46.473 721.473)"><circle class="d" cx="17.5" cy="17.5" r="17.5"/><circle class="e" cx="17.5" cy="17.5" r="16.5"/></g><g class="b" transform="translate(47.473 722.473)"><circle class="d" cx="16.5" cy="16.5" r="16.5"/><circle class="e" cx="16.5" cy="16.5" r="16"/></g></g><path class="c" d="M19.718,7.065h0L18.95,6.9H17.469l-.658.055h0l-.549.165h0a5.432,5.432,0,0,0-3.566,6.31,4.718,4.718,0,0,0,.329,1.042A5.267,5.267,0,0,0,14.4,16.282a5.871,5.871,0,0,0,1.975,1.207l.439.11v2.14H14.342v.6h2.414v.878H14.342v.6h2.414v2.249h.713V21.823h0v-.6h0v-.933h0v-.6h0V16.392h0v-.878a3.347,3.347,0,0,1-1.536-.933h-.055a3.511,3.511,0,0,1-.658-.933,3.127,3.127,0,0,1-.274-1.317,3.237,3.237,0,0,1,.878-2.195h0a3.511,3.511,0,0,1,.878-.713h.219a2.634,2.634,0,0,1,2.414.11h.055a3.347,3.347,0,0,1,1.756,2.853,3.182,3.182,0,0,1-1.1,2.414h-.11a3.182,3.182,0,0,1-1.427.768v.658h0v3.511h0v.6h0v.878h0v.6h0v2.249h.713V21.823h2.414v-.6H19.225v-.933h2.414v-.6H19.225v-2.14l.439-.11a5.706,5.706,0,0,0,1.975-1.207,5.212,5.212,0,0,0,1.372-1.811,4.663,4.663,0,0,0,.329-1.042A5.432,5.432,0,0,0,19.718,7.065ZM22.407,14.2A4.993,4.993,0,0,1,21.2,15.788l-.933.713a3.511,3.511,0,0,1-1.042.439v-.988a4.773,4.773,0,0,0,1.262-.823,4.06,4.06,0,0,0,.988-1.317,3.566,3.566,0,0,0,.329-1.536,4.005,4.005,0,0,0-2.414-3.566h0l-.658-.219h-.165a3.018,3.018,0,0,0-1.646.165,4.06,4.06,0,0,0-2.634,3.676,3.566,3.566,0,0,0,.329,1.536,4.444,4.444,0,0,0,.933,1.262,4.719,4.719,0,0,0,1.207.768v.988a3.731,3.731,0,0,1-1.042-.439l-.878-.713a4.718,4.718,0,0,1-1.207-1.591,4.883,4.883,0,0,1,2.688-6.419h0A5.1,5.1,0,0,1,19.005,7.5h.165A4.883,4.883,0,0,1,22.407,14.2Z" transform="translate(43.338 1163.886)"/></g></svg>