<svg xmlns="http://www.w3.org/2000/svg" xmlns:xlink="http://www.w3.org/1999/xlink" width="966.573" height="190.768" viewBox="0 0 966.573 190.768"><defs><style>.a,.g{fill:none;}.b{fill:#b53f3f;}.c{clip-path:url(#a);}.d{fill:#333;font-size:14px;font-family:Rubik-Regular, Rubik;letter-spacing:0.02em;}.e{fill:url(#b);}.f{clip-path:url(#c);}.g{stroke:#fc6a80;stroke-width:2px;}</style><clipPath id="a"><rect class="a" width="961" height="17"/></clipPath><linearGradient id="b" x1="0.5" y1="1.093" x2="0.5" gradientUnits="objectBoundingBox"><stop offset="0" stop-color="#fff"/><stop offset="0.275" stop-color="#ffccd5"/><stop offset="0.739" stop-color="#fc6a80"/><stop offset="1" stop-color="#fc6a80"/></linearGradient><clipPath id="c"><path class="b" d="M3154.427,1236.3l4.285-2.969,146.614,31.02,66.452,2.779L3786,1284.149l189-24.272,59.684-8.428,15.284-17.323h1.631l3.51,5.778v-90.672H3154.427Z" transform="translate(-2872)"/></clipPath></defs><g transform="translate(-282.427 -1129.232)"><g class="c" transform="translate(288 1303)"><g transform="translate(-300 -1334)"><text class="d" transform="translate(300 1334)"><tspan x="0" y="13">Jan</tspan></text></g><g transform="translate(-216 -1334)"><text class="d" transform="translate(300 1334)"><tspan x="0" y="13">Feb</tspan></text></g><g transform="translate(-132 -1334)"><text class="d" transform="translate(300 1334)"><tspan x="0" y="13">Mar</tspan></text></g><g transform="translate(-48 -1334)"><text class="d" transform="translate(300 1334)"><tspan x="0" y="13">Apr</tspan></text></g><g transform="translate(36 -1334)"><text class="d" transform="translate(300 1334)"><tspan x="0" y="13">May</tspan></text></g><g transform="translate(120 -1334)"><text class="d" transform="translate(300 1334)"><tspan x="0" y="13">Jun</tspan></text></g><g transform="translate(204 -1334)"><text class="d" transform="translate(300 1334)"><tspan x="0" y="13">Jul</tspan></text></g><g transform="translate(288 -1334)"><text class="d" transform="translate(300 1334)"><tspan x="0" y="13">Aug</tspan></text></g><g transform="translate(372 -1334)"><text class="d" transform="translate(300 1334)"><tspan x="0" y="13">Sep</tspan></text></g><g transform="translate(456 -1334)"><text class="d" transform="translate(300 1334)"><tspan x="0" y="13">Oct</tspan></text></g><g transform="translate(540 -1334)"><text class="d" transform="translate(300 1334)"><tspan x="0" y="13">Nov</tspan></text></g><g transform="translate(624 -1334)"><text class="d" transform="translate(300 1334)"><tspan x="0" y="13">Dec</tspan></text></g></g><g transform="translate(0 -20)"><path class="e" d="M893.02,79.806l-5.85-6.5-9.1,14.951-7.151-11.7-4.55,11.7-3.9-21.452-5.85,1.3-1.95-24.7-6.5-2.6-2.6-7.151-3.25,2.6h-7.151l-1.95,2.6-10.4.65-13,7.8-5.85-1.95-5.2,29.9-4.55-1.3-4.55,21.452-4.55-31.2-6.5,4.55-2.6-.65-1.95,2.6-4.55-11.051-9.1,12.351-3.25-3.25-3.25-6.5-11.7-.65-3.25.65-3.25-1.3-4.55,5.2-5.85-1.95-6.5,8.451-2.6-1.95-2.6,8.451L709.055,53.8l-5.2,6.5-2.6-4.55-4.55,1.3-2.6-3.25-4.55,2.6-2.6-14.3-4.55.65-5.85-8.451L666.8,71.356l-1.95-3.9-3.25,3.9L654.451,43.4l-1.95,3.9-2.6-7.8-4.55,21.452-9.1-33.8-5.2,1.3L627.8,23.9l-2.6-.65-4.55-6.5-3.25,5.2-3.25,1.3-3.9,10.4L599.847.5l-5.2,14.3-2.6-.65-2.6,5.85-4.55-7.8-9.1,53.3-7.151-4.55-2.6,1.3-1.95-1.3-9.751,32.5-2.6-7.151-2.6,1.95-3.9-4.55-3.25,3.25-4.55-14.951-7.151,44.2-3.25-2.6-3.25,7.8-1.95-2.6-10.4-4.55-9.1,1.3-3.25,2.6-4.55-18.2-7.8,1.3-4.55-2.6-4.55,1.3-3.9-5.2-3.9,3.9-13-14.951-4.55,1.95L445.135,64.2l-3.25,4.55L436.034,47.3l-3.25.65-5.2-11.7-3.9,27.3-3.9-.65-2.6,3.25-3.9-3.9-6.5,28.6-3.9-3.25-2.6,5.2-7.8-20.152-1.3,1.95-7.8-24.7-2.6.65-2.6-2.6-3.9,16.9-6.5-18.2-7.151,29.9-3.25-6.5-9.751-.65-7.151-5.85-3.9,3.25-5.85,1.95-2.6-6.5-5.2,3.25-5.2-.65-2.6-17.551-6.5,17.551L304.074,44.7l-3.9-.65-1.95,3.25-3.25-2.6-3.9,1.3-4.55-9.751-7.8,33.8-3.25-1.3-4.55,6.5-2.6-3.25-4.55,16.251-9.751-11.7-4.55,9.1-4.55-2.6-3.25,5.2-6.5-1.95-2.6.65-9.1-8.451-3.25,1.95L214.367,64.2l-8.451,9.751-5.2-1.95-3.25,5.85-2.6-3.25-4.55,11.7-.65,14.3-3.9-7.151-3.9,3.25-2.6-3.25-3.9-9.751-3.25,2.6L161.063,46l-5.85,14.951-3.25-3.25-1.3,7.151-5.2,2.6-3.25-5.85-5.85,9.1-3.25-1.95-3.9,3.9-6.5-.65-9.751,18.851-2.6-1.95-3.9,5.85-7.151-26-4.55,1.3-3.9-13-2.6,4.55-13-14.951L62.9,41.453H59L45.354,79.806,33,66.805l-2.6,1.95-9.751-1.3-3.9,3.25L10.9,60.955.5,79.806v72.156H893.02Z" transform="translate(285.575 1153.917)"/><g class="f"><path class="g" d="M893.02,79.806l-5.85-6.5-9.1,14.951-7.151-11.7-4.55,11.7-3.9-21.452-5.85,1.3-1.95-24.7-6.5-2.6-2.6-7.151-3.25,2.6h-7.151l-1.95,2.6-10.4.65-13,7.8-5.85-1.95-5.2,29.9-4.55-1.3-4.55,21.452-4.55-31.2-6.5,4.55-2.6-.65-1.95,2.6-4.55-11.051-9.1,12.351-3.25-3.25-3.25-6.5-11.7-.65-3.25.65-3.25-1.3-4.55,5.2-5.85-1.95-6.5,8.451-2.6-1.95-2.6,8.451L709.055,53.8l-5.2,6.5-2.6-4.55-4.55,1.3-2.6-3.25-4.55,2.6-2.6-14.3-4.55.65-5.85-8.451L666.8,71.356l-1.95-3.9-3.25,3.9L654.451,43.4l-1.95,3.9-2.6-7.8-4.55,21.452-9.1-33.8-5.2,1.3L627.8,23.9l-2.6-.65-4.55-6.5-3.25,5.2-3.25,1.3-3.9,10.4L599.847.5l-5.2,14.3-2.6-.65-2.6,5.85-4.55-7.8-9.1,53.3-7.151-4.55-2.6,1.3-1.95-1.3-9.751,32.5-2.6-7.151-2.6,1.95-3.9-4.55-3.25,3.25-4.55-14.951-7.151,44.2-3.25-2.6-3.25,7.8-1.95-2.6-10.4-4.55-9.1,1.3-3.25,2.6-4.55-18.2-7.8,1.3-4.55-2.6-4.55,1.3-3.9-5.2-3.9,3.9-13-14.951-4.55,1.95L445.135,64.2l-3.25,4.55L436.034,47.3l-3.25.65-5.2-11.7-3.9,27.3-3.9-.65-2.6,3.25-3.9-3.9-6.5,28.6-3.9-3.25-2.6,5.2-7.8-20.152-1.3,1.95-7.8-24.7-2.6.65-2.6-2.6-3.9,16.9-6.5-18.2-7.151,29.9-3.25-6.5-9.751-.65-7.151-5.85-3.9,3.25-5.85,1.95-2.6-6.5-5.2,3.25-5.2-.65-2.6-17.551-6.5,17.551L304.074,44.7l-3.9-.65-1.95,3.25-3.25-2.6-3.9,1.3-4.55-9.751-7.8,33.8-3.25-1.3-4.55,6.5-2.6-3.25-4.55,16.251-9.751-11.7-4.55,9.1-4.55-2.6-3.25,5.2-6.5-1.95-2.6.65-9.1-8.451-3.25,1.95L214.367,64.2l-8.451,9.751-5.2-1.95-3.25,5.85-2.6-3.25-4.55,11.7-.65,14.3-3.9-7.151-3.9,3.25-2.6-3.25-3.9-9.751-3.25,2.6L161.063,46l-5.85,14.951-3.25-3.25-1.3,7.151-5.2,2.6-3.25-5.85-5.85,9.1-3.25-1.95-3.9,3.9-6.5-.65-9.751,18.851-2.6-1.95-3.9,5.85-7.151-26-4.55,1.3-3.9-13-2.6,4.55-13-14.951L62.9,41.453H59L45.354,79.806,33,66.805l-2.6,1.95-9.751-1.3-3.9,3.25L10.9,60.955.5,79.806v72.156H893.02Z" transform="translate(285.575 1153.917)"/></g></g></g></svg>