<svg xmlns="http://www.w3.org/2000/svg" width="10.625" height="16.287" viewBox="0 0 10.625 16.287"><defs><style>.a{fill:#333;stroke:#333;}</style></defs><g transform="translate(-9.5 15.787) rotate(-90)"><path class="a" d="M20.023,14.529H7.967l4.046-4.046a.283.283,0,0,0-.4-.4l-4.53,4.53a.284.284,0,0,0,0,.4l4.53,4.53a.283.283,0,0,0,.4-.4L7.967,15.1H20.023a.283.283,0,1,0,0-.566Z" transform="translate(-5.019)"/><path class="a" d="M.283,10A.283.283,0,0,0,0,10.283v9.059a.283.283,0,1,0,.566,0V10.283A.283.283,0,0,0,.283,10Z" transform="translate(0 0)"/></g></svg>