<svg xmlns="http://www.w3.org/2000/svg" width="300" height="29.676" viewBox="0 0 300 29.676"><defs><style>.a{fill:#fe5c75;}.b{fill:#fff;}</style></defs><g transform="translate(150 14.838)"><g transform="translate(-150 -14.838)"><g transform="translate(38.591 2.828)"><path class="a" d="M69.051,14.487C74,15.674,76.5,17.455,76.5,21.345s-3.429,6.924-8.309,6.924A14.31,14.31,0,0,1,58.5,24.577l2.44-2.9a10.742,10.742,0,0,0,7.32,3.033c2.9,0,4.089-1.187,4.089-2.968s-.923-2.572-5.276-3.561-7.716-2.638-7.716-6.99S62.655,4.4,67.271,4.4a12.859,12.859,0,0,1,8.507,2.9L73.6,10.4a10.551,10.551,0,0,0-6.331-2.374c-2.374,0-3.759,1.253-3.759,2.77S64.567,13.432,69.051,14.487Z" transform="translate(-58.5 -4.323)"/><path class="a" d="M107.075,28.113h-4.089V8.659H95.6V4.9h18.86V8.659h-7.386Z" transform="translate(-71.134 -4.496)"/><path class="a" d="M146.221,28.113h-4.089V18.946L132.9,4.9h4.814l6.463,10.288L150.771,4.9h4.682l-9.232,13.98Z" transform="translate(-83.836 -4.496)"/><path class="a" d="M178.6,4.9h4.089V24.42h12.2v3.693H178.6Z" transform="translate(-99.399 -4.496)"/><path class="a" d="M232.312,8.527H219.189v6.067h11.672v3.627H219.189v6.265H232.51v3.627H215.1V4.9h17.212Z" transform="translate(-111.829 -4.496)"/><path class="a" d="M264.6,28.3a11.674,11.674,0,0,1-11.8-12,11.68,11.68,0,0,1,12-12,12.134,12.134,0,0,1,9.1,3.627l-2.638,3.033a8.983,8.983,0,0,0-6.529-2.9c-4.418,0-7.65,3.627-7.65,8.243s3.231,8.243,7.65,8.243c2.836,0,4.682-1.187,6.661-3.034l2.638,2.638A11.792,11.792,0,0,1,264.6,28.3Z" transform="translate(-124.668 -4.288)"/><path class="a" d="M312.97,28.113l-5.737-8.045h-5.144v8.045H298V4.9h10.353c5.342,0,8.639,2.836,8.639,7.386s-2.308,6.2-5.539,7.056l6.331,8.771Zm-4.88-19.52h-5.935V16.44h6c2.9,0,4.748-1.517,4.748-3.891s-1.846-3.957-4.814-3.957Z" transform="translate(-140.06 -4.496)"/><path class="a" d="M362.5,28.011h-4.286l-2.374-5.605H344.829l-2.374,5.605H338.3L348.522,4.6h3.759ZM350.3,9.48l-3.957,9.3h7.979Z" transform="translate(-153.784 -4.394)"/><path class="a" d="M385.662,8.527V4.9h18.6V7.934L390.542,24.486h13.717v3.627H385.2V25.145L398.917,8.527Z" transform="translate(-169.755 -4.496)"/><path class="a" d="M445.778,8.527H432.589v6.067h11.672v3.627H432.589v6.265H445.91v3.627H428.5V4.9h17.212Z" transform="translate(-184.501 -4.496)"/></g><path class="a" d="M25.316,25.323a14.838,14.838,0,1,1,0-20.971A14.838,14.838,0,0,1,25.316,25.323Z" transform="translate(0.02 0)"/><path class="b" d="M21.162,7.1h0l-.923-.2H18.458l-.791.066h0l-.659.2h0a6.529,6.529,0,0,0-4.286,7.584,5.671,5.671,0,0,0,.4,1.253,6.331,6.331,0,0,0,1.649,2.176,7.056,7.056,0,0,0,2.374,1.451l.528.132v2.572H14.7v.725h2.9v1.055H14.7v.725h2.9v2.7h.857v-2.7h0v-.725h0V22.991h0v-.725h0V18.309h0V17.253a4.023,4.023,0,0,1-1.846-1.121h-.066a4.221,4.221,0,0,1-.791-1.121,3.759,3.759,0,0,1-.33-1.583,3.891,3.891,0,0,1,1.055-2.638h0a4.221,4.221,0,0,1,1.055-.857H17.8a3.165,3.165,0,0,1,2.9.132h.066a4.023,4.023,0,0,1,2.11,3.429,3.825,3.825,0,0,1-1.319,2.9h-.132a3.825,3.825,0,0,1-1.715.923v.791h0v4.221h0v.725h0v1.055h0v.725h0v2.7h.857v-2.7h2.9v-.725h-2.9V22.991h2.9v-.725h-2.9V19.693l.528-.132a6.858,6.858,0,0,0,2.374-1.451,6.265,6.265,0,0,0,1.649-2.176,5.605,5.605,0,0,0,.4-1.253A6.529,6.529,0,0,0,21.162,7.1Zm3.231,8.573a6,6,0,0,1-1.451,1.912l-1.121.857a4.22,4.22,0,0,1-1.253.528V17.781a5.737,5.737,0,0,0,1.517-.989,4.88,4.88,0,0,0,1.187-1.583,4.286,4.286,0,0,0,.4-1.846,4.814,4.814,0,0,0-2.9-4.286h0l-.791-.264h-.2a3.627,3.627,0,0,0-1.978.2,4.88,4.88,0,0,0-3.165,4.418,4.286,4.286,0,0,0,.4,1.846,5.342,5.342,0,0,0,1.121,1.517,5.671,5.671,0,0,0,1.451.923V18.9a4.485,4.485,0,0,1-1.253-.528l-1.055-.857A5.671,5.671,0,0,1,13.842,15.6a5.869,5.869,0,0,1,3.231-7.716h0A6.133,6.133,0,0,1,20.3,7.625h.2a5.869,5.869,0,0,1,3.891,8.045Z" transform="translate(-4.267 -2.35)"/></g></g></svg>