<svg xmlns="http://www.w3.org/2000/svg" xmlns:xlink="http://www.w3.org/1999/xlink" width="994" height="239" viewBox="0 0 994 239"><defs><style>.a,.f{fill:none;}.b{opacity:0.5;fill:url(#a);}.c{fill:#cbd3d0;}.d{fill:#4a4a4a;font-size:10px;font-family:Rubik-Regular, Rubik;letter-spacing:0.02em;}.e{clip-path:url(#b);}.f{stroke:#4caf50;stroke-width:3px;}</style><linearGradient id="a" x1="0.5" y1="1" x2="0.5" y2="0.001" gradientUnits="objectBoundingBox"><stop offset="0" stop-color="#fff"/><stop offset="0.171" stop-color="#e6faf6"/><stop offset="0.739" stop-color="#43a047"/><stop offset="1" stop-color="#43a047"/></linearGradient><clipPath id="b"><rect class="a" width="945" height="12"/></clipPath></defs><g transform="translate(-292 -430)"><path class="b" d="M530.291,71.672c-8.52,1.7-24.283,2.982-37.064-4.26-21.3-11.5-25.561-36.212-39.194-36.212-21.727,0-30.674,72.424-60.5,71.572-10.225,0-11.929-9.372-25.135-9.372-20.875,0-26.413,23.005-40.9,22.153-22.153-1.7-25.561-56.661-51.123-60.5-13.633-2.13-17.893,13.207-35.36,11.929-21.3-1.278-24.709-25.135-41.324-27.691-30.674-4.26-46.436,71.146-86.909,73.7-23.857,1.278-33.23-24.283-54.957-20.023-22.579,4.26-36.638,37.064-44.732,63.051v36.212H530.291Z" transform="translate(331.242 455.849)"/><g transform="translate(0 20)"><g transform="translate(309.5 416)"><rect class="c" width="976.5" height="0.2" transform="translate(0)"/></g><g transform="translate(309.5 439)"><rect class="c" width="976.5" height="0.2" transform="translate(0)"/></g><g transform="translate(309.5 463)"><rect class="c" width="976.5" height="0.2" transform="translate(0)"/></g><g transform="translate(309.5 486)"><rect class="c" width="976.5" height="0.2" transform="translate(0)"/></g><g transform="translate(309.5 509)"><rect class="c" width="976.5" height="0.2" transform="translate(0)"/></g><g transform="translate(309.5 533)"><rect class="c" width="976.5" height="0.2" transform="translate(0)"/></g><g transform="translate(309.5 556)"><rect class="c" width="976.5" height="0.2" transform="translate(0)"/></g><g transform="translate(309.5 579)"><rect class="c" width="976.5" height="0.2" transform="translate(0)"/></g><g transform="translate(309.5 603)"><rect class="c" width="976.5" height="0.2" transform="translate(0)"/></g><g transform="translate(309.5 626)"><rect class="c" width="976.5" height="0.2" transform="translate(0)"/></g></g><text class="d" transform="translate(292 439)"><tspan x="0" y="0">10</tspan></text><text class="d" transform="translate(292 462)"><tspan x="0" y="0">09</tspan></text><text class="d" transform="translate(292 486)"><tspan x="0" y="0">08</tspan></text><text class="d" transform="translate(292 509)"><tspan x="0" y="0">07</tspan></text><text class="d" transform="translate(292 532)"><tspan x="0" y="0">06</tspan></text><text class="d" transform="translate(292 556)"><tspan x="0" y="0">05</tspan></text><text class="d" transform="translate(292 579)"><tspan x="0" y="0">04</tspan></text><text class="d" transform="translate(292 602)"><tspan x="0" y="0">03</tspan></text><text class="d" transform="translate(292 626)"><tspan x="0" y="0">02</tspan></text><text class="d" transform="translate(292 649)"><tspan x="0" y="0">01</tspan></text><g class="e" transform="translate(339 657)"><g transform="translate(-339 -637)"><text class="d" transform="translate(339 646)"><tspan x="0" y="0">01</tspan></text></g><g transform="translate(-291 -637)"><text class="d" transform="translate(339 646)"><tspan x="0" y="0">02</tspan></text></g><g transform="translate(-243 -637)"><text class="d" transform="translate(339 646)"><tspan x="0" y="0">03</tspan></text></g><g transform="translate(-195 -637)"><text class="d" transform="translate(339 646)"><tspan x="0" y="0">04</tspan></text></g><g transform="translate(-147 -637)"><text class="d" transform="translate(339 646)"><tspan x="0" y="0">05</tspan></text></g><g transform="translate(-99 -637)"><text class="d" transform="translate(339 646)"><tspan x="0" y="0">06</tspan></text></g><g transform="translate(-51 -637)"><text class="d" transform="translate(339 646)"><tspan x="0" y="0">07</tspan></text></g><g transform="translate(-3 -637)"><text class="d" transform="translate(339 646)"><tspan x="0" y="0">08</tspan></text></g><g transform="translate(45 -637)"><text class="d" transform="translate(339 646)"><tspan x="0" y="0">09</tspan></text></g><g transform="translate(93 -637)"><text class="d" transform="translate(339 646)"><tspan x="0" y="0">10</tspan></text></g><g transform="translate(141 -637)"><text class="d" transform="translate(339 646)"><tspan x="0" y="0">11</tspan></text></g><g transform="translate(189 -637)"><text class="d" transform="translate(339 646)"><tspan x="0" y="0">12</tspan></text></g><g transform="translate(237 -637)"><text class="d" transform="translate(339 646)"><tspan x="0" y="0">13</tspan></text></g><g transform="translate(285 -637)"><text class="d" transform="translate(339 646)"><tspan x="0" y="0">14</tspan></text></g><g transform="translate(333 -637)"><text class="d" transform="translate(339 646)"><tspan x="0" y="0">15</tspan></text></g><g transform="translate(381 -637)"><text class="d" transform="translate(339 646)"><tspan x="0" y="0">16</tspan></text></g><g transform="translate(429 -637)"><text class="d" transform="translate(339 646)"><tspan x="0" y="0">17</tspan></text></g><g transform="translate(477 -637)"><text class="d" transform="translate(339 646)"><tspan x="0" y="0">18</tspan></text></g><g transform="translate(525 -637)"><text class="d" transform="translate(339 646)"><tspan x="0" y="0">19</tspan></text></g><g transform="translate(573 -637)"><text class="d" transform="translate(339 646)"><tspan x="0" y="0">20</tspan></text></g></g><path class="f" d="M3212,606.56s17.888-44.023,29-54.874,24.109-23.1,53.073,0,53.155-9.914,69.007-31.882,24.263-32.5,33.709-34.46,18.4,4.79,29.252,19.958,31.935,9.832,41.53,0,26.687-2.892,32.628,14.5,16.485,32.756,19.1,34.943,12.365,17.678,29.983-4.111,40.076-5.1,40.076-5.1,16.182,13.34,35.111-19.982,18.583-35.6,18.583-35.6,11.029-25.086,28.113-3.78,21.2,34.31,62.529,31.874" transform="translate(-2872 10)"/></g></svg>