<svg xmlns="http://www.w3.org/2000/svg" xmlns:xlink="http://www.w3.org/1999/xlink" width="34" height="34" viewBox="0 0 34 34"><defs><style>.a{fill:#fff;stroke:#d6cacc;}.b{fill:url(#a);}.c{stroke:none;}.d{fill:none;}</style><linearGradient id="a" x1="0.03" y1="0.899" x2="1.474" y2="-0.327" gradientUnits="objectBoundingBox"><stop offset="0" stop-color="#fbe18a"/><stop offset="0.21" stop-color="#fcbb45"/><stop offset="0.38" stop-color="#f75274"/><stop offset="0.52" stop-color="#d53692"/><stop offset="0.74" stop-color="#8f39ce"/><stop offset="1" stop-color="#5b4fe9"/></linearGradient></defs><g transform="translate(0 -0.155)"><g class="a" transform="translate(0 0.155)"><circle class="c" cx="17" cy="17" r="17"/><circle class="d" cx="17" cy="17" r="16.5"/></g><path class="b" d="M341.281,537.3a1.018,1.018,0,1,0,1.076,1.017A1.047,1.047,0,0,0,341.281,537.3Zm-4.814,1.308a4.268,4.268,0,1,0,4.507,4.261,4.435,4.435,0,0,0-4.456-4.261Zm0,7.021a2.9,2.9,0,1,1,.051,0Zm9.167-6.295A5.387,5.387,0,0,0,340.1,534.1h-7.272a5.387,5.387,0,0,0-5.531,5.229v6.876a5.084,5.084,0,0,0,1.6,3.729,5.7,5.7,0,0,0,3.929,1.549H340.1a5.387,5.387,0,0,0,5.531-5.229Zm-1.741,6.876a3.691,3.691,0,0,1-3.79,3.583h-7.272a3.691,3.691,0,0,1-3.79-3.583v-6.876a3.691,3.691,0,0,1,3.79-3.583H340.1a3.691,3.691,0,0,1,3.79,3.583Z" transform="translate(-319.3 -525.945)"/></g></svg>