<svg xmlns="http://www.w3.org/2000/svg" width="11.533" height="19.196" viewBox="0 0 11.533 19.196"><defs><style>.a{fill:#fd6a80;}</style></defs><path class="a" d="M20.138,7.084h0L19.324,6.9H17.756l-.7.061h0l-.581.184h0A6.127,6.127,0,0,0,12.7,14.2a5.49,5.49,0,0,0,.348,1.165A5.867,5.867,0,0,0,14.5,17.387a6.167,6.167,0,0,0,2.091,1.349l.465.123v2.392H14.446v.675H17v.981H14.446v.675H17V26.1h.755V23.582h0v-.675h0V21.864h0V21.19h0V17.51h0v-.981a3.515,3.515,0,0,1-1.626-1.043h-.058a3.932,3.932,0,0,1-.7-1.043,3.663,3.663,0,0,1-.29-1.472,3.729,3.729,0,0,1,.929-2.453h0a3.765,3.765,0,0,1,.929-.8h.232a2.658,2.658,0,0,1,2.556.123h.058a3.77,3.77,0,0,1,1.859,3.189,3.645,3.645,0,0,1-1.162,2.7H20.37a3.318,3.318,0,0,1-1.51.859v.736h0v3.925h0v.675h0v.981h0v.675h0V26.1h.755V23.582h2.556v-.675H19.615V21.864h2.556V21.19H19.615V18.8l.465-.123a5.994,5.994,0,0,0,2.091-1.349A5.806,5.806,0,0,0,23.623,15.3a5.425,5.425,0,0,0,.348-1.165A6.122,6.122,0,0,0,20.138,7.084Zm2.846,7.973a5.561,5.561,0,0,1-1.278,1.779l-.987.8a3.614,3.614,0,0,1-1.1.491v-1.1a5.035,5.035,0,0,0,1.336-.92A4.526,4.526,0,0,0,22,14.627a4.176,4.176,0,0,0,.348-1.717,4.484,4.484,0,0,0-2.556-3.986h0l-.7-.245h-.174a3.037,3.037,0,0,0-1.743.184,4.528,4.528,0,0,0-2.788,4.109,4.176,4.176,0,0,0,.348,1.717,4.96,4.96,0,0,0,.987,1.411A4.969,4.969,0,0,0,17,16.958v1.1a3.84,3.84,0,0,1-1.1-.491l-.929-.8A5.256,5.256,0,0,1,13.69,15a5.74,5.74,0,0,1,0-4.217A5.316,5.316,0,0,1,16.536,7.82h0a5.132,5.132,0,0,1,2.846-.245h.174a5.243,5.243,0,0,1,3.35,2.905A5.736,5.736,0,0,1,22.984,15.057Z" transform="translate(-12.569 -6.9)"/></svg>