<svg xmlns="http://www.w3.org/2000/svg" width="23.44" height="23.44" viewBox="0 0 23.44 23.44">
  <g id="Group_1550" data-name="Group 1550" transform="translate(-369.997 -2267.5)">
    <path id="Path_3676" data-name="Path 3676" d="M141.145,115.155a11.72,11.72,0,1,1-11.721-11.719A11.72,11.72,0,0,1,141.145,115.155Z" transform="translate(252.292 2164.064)" fill="#fff" opacity="0.4"/>
    <path id="Path_3671" data-name="Path 3671" d="M336.78,586.792a.729.729,0,1,0,.729.729.729.729,0,0,0-.729-.729Zm-3.264.938a3.056,3.056,0,1,0,3.056,3.056,3.091,3.091,0,0,0-3.021-3.056Zm0,5.035a1.962,1.962,0,1,1,.034,0Zm6.216-4.514a3.75,3.75,0,0,0-3.75-3.75H331.05a3.75,3.75,0,0,0-3.75,3.75v4.931a3.75,3.75,0,0,0,3.75,3.75h4.931a3.75,3.75,0,0,0,3.75-3.75Zm-1.181,4.931a2.57,2.57,0,0,1-2.57,2.57H331.05a2.57,2.57,0,0,1-2.57-2.57V588.25a2.57,2.57,0,0,1,2.57-2.57h4.931a2.57,2.57,0,0,1,2.57,2.57Z" transform="translate(47.843 1688.146)" fill="#a5a5a5" opacity="0.2"/>
  </g>
</svg>
