<svg xmlns="http://www.w3.org/2000/svg" width="23.44" height="23.44" viewBox="0 0 23.44 23.44">
  <g id="Group_1551" data-name="Group 1551" transform="translate(-262.71 -2267.213)">
    <path id="Path_1260" data-name="Path 1260" d="M141.145,115.155a11.72,11.72,0,1,1-11.721-11.719A11.72,11.72,0,0,1,141.145,115.155Z" transform="translate(145.005 2163.777)" fill="#fff" opacity="0.4"/>
    <path id="Path_1280" data-name="Path 1280" d="M284.74,590.766v5.565a.134.134,0,0,0,.134.134h2.078a.134.134,0,0,0,.134-.134V590.7h1.508a.134.134,0,0,0,.134-.134l.134-1.71a.134.134,0,0,0-.134-.168h-1.643v-1.207a.5.5,0,0,1,.5-.5h1.14a.134.134,0,0,0,.134-.134v-1.71a.134.134,0,0,0-.134-.134h-1.944a2.078,2.078,0,0,0-2.078,2.078v1.609h-.972a.134.134,0,0,0-.134.134v1.71a.134.134,0,0,0,.134.134h1.006Z" transform="translate(-11.732 1688.115)" fill="#a5a5a5" fill-rule="evenodd" opacity="0.2"/>
  </g>
</svg>
