<svg xmlns="http://www.w3.org/2000/svg" width="23.44" height="23.44" viewBox="0 0 23.44 23.44">
  <g id="Group_1549" data-name="Group 1549" transform="translate(-471.997 -2267.5)">
    <path id="Path_3678" data-name="Path 3678" d="M141.145,115.155a11.72,11.72,0,1,1-11.721-11.719A11.72,11.72,0,0,1,141.145,115.155Z" transform="translate(354.292 2164.064)" fill="#fff" opacity="0.4"/>
    <path id="Path_3672" data-name="Path 3672" d="M174.533,595.119a2.919,2.919,0,0,0-2.919-2.919h-7.5a2.919,2.919,0,0,0-2.919,2.919v3.511a2.919,2.919,0,0,0,2.919,2.919h7.535a2.919,2.919,0,0,0,2.919-2.919Zm-4.734,1.933-3,1.657c-.118.079-.237-.039-.237-.158v-3.393c0-.158.118-.237.237-.158l3.038,1.736a.2.2,0,0,1-.039.316Z" transform="translate(315.943 1681.818)" fill="#a5a5a5" opacity="0.2"/>
  </g>
</svg>
