<svg xmlns="http://www.w3.org/2000/svg" width="23.44" height="23.44" viewBox="0 0 23.44 23.44">
  <g id="Group_1548" data-name="Group 1548" transform="translate(-581.997 -2267.5)">
    <path id="Path_3679" data-name="Path 3679" d="M141.145,115.155a11.72,11.72,0,1,1-11.721-11.719A11.72,11.72,0,0,1,141.145,115.155Z" transform="translate(464.292 2164.064)" fill="#fff" opacity="0.4"/>
    <g id="Group_1537" data-name="Group 1537" transform="translate(587.872 2272.689)" opacity="0.2">
      <path id="Path_3681" data-name="Path 3681" d="M12.132,958.362A6.132,6.132,0,1,1,6,964.494,6.136,6.136,0,0,1,12.132,958.362Zm.279.592v2.613h1.973a6.786,6.786,0,0,0-.418-1.089A2.581,2.581,0,0,0,12.411,958.954Zm-.557,0a2.581,2.581,0,0,0-1.555,1.524,6.786,6.786,0,0,0-.418,1.089h1.973Zm1.89.2a4.576,4.576,0,0,1,.719,1.071,7.545,7.545,0,0,1,.5,1.337h1.916A5.576,5.576,0,0,0,13.743,959.159Zm-3.223,0a5.576,5.576,0,0,0-3.136,2.408H9.3a7.545,7.545,0,0,1,.5-1.337A4.576,4.576,0,0,1,10.521,959.159Zm6.659,2.966H15.1a11.361,11.361,0,0,1,.235,2.09H17.7A5.538,5.538,0,0,0,17.18,962.125Zm-2.652,0H12.411v2.09h2.365a10.782,10.782,0,0,0-.248-2.09Zm-2.674,0H9.737a10.783,10.783,0,0,0-.248,2.09h2.365Zm-2.687,0H7.084a5.538,5.538,0,0,0-.518,2.09H8.931A11.361,11.361,0,0,1,9.166,962.125Zm8.532,2.648H15.333a11.312,11.312,0,0,1-.235,2.09H17.18A5.558,5.558,0,0,0,17.7,964.773Zm-2.922,0H12.411v2.09h2.117A10.763,10.763,0,0,0,14.776,964.773Zm-2.922,0H9.488a10.763,10.763,0,0,0,.248,2.09h2.117Zm-2.922,0H6.566a5.558,5.558,0,0,0,.518,2.09H9.166A11.312,11.312,0,0,1,8.931,964.773Zm7.948,2.648H14.963a7.512,7.512,0,0,1-.5,1.333,4.651,4.651,0,0,1-.719,1.08A5.583,5.583,0,0,0,16.879,967.421Zm-2.5,0H12.411v2.617a2.59,2.59,0,0,0,1.555-1.529A6.739,6.739,0,0,0,14.384,967.421Zm-2.53,0H9.88a6.739,6.739,0,0,0,.418,1.089,2.59,2.59,0,0,0,1.555,1.529Zm-2.552,0H7.385a5.583,5.583,0,0,0,3.136,2.413,4.651,4.651,0,0,1-.719-1.08A7.513,7.513,0,0,1,9.3,967.421Z" transform="translate(-6 -958.362)" fill="#a5a5a5" stroke="#a5a5a5" stroke-width="0.3"/>
    </g>
  </g>
</svg>
