<svg xmlns="http://www.w3.org/2000/svg" width="23.44" height="23.44" viewBox="0 0 23.44 23.44">
  <g id="Group_1650" data-name="Group 1650" transform="translate(-5234 -2239)">
    <path id="Path_3679" data-name="Path 3679" d="M141.145,115.155a11.72,11.72,0,1,1-11.721-11.719A11.72,11.72,0,0,1,141.145,115.155Z" transform="translate(5116.295 2135.564)" fill="#fff" opacity="0.4"/>
    <g id="Group_1539" data-name="Group 1539" transform="translate(5119.468 2137.27)">
      <path id="Path_1735" data-name="Path 1735" d="M128.442,113.942a3.077,3.077,0,0,1-1.261.921c.18.226.341.455.454.6h0c-.112.195-.307.546-.307.546,0,.036.027.311.064.71a9.368,9.368,0,0,0,1.425-2.559c-.041-.017-.078-.033-.111-.049A1.159,1.159,0,0,1,128.442,113.942Zm-1.944,1.523c.114-.147.276-.377.455-.6a3.07,3.07,0,0,1-1.263-.927,1.34,1.34,0,0,1-.266.179c-.033.017-.07.035-.11.051a9.439,9.439,0,0,0,1.425,2.558c.038-.4.063-.675.065-.711,0,0-.195-.351-.308-.546Zm2.941-4.668a4.741,4.741,0,0,1-.314.441,2.635,2.635,0,0,0-.229-1.708,2.144,2.144,0,0,0-.6-.649,5.051,5.051,0,0,1-2.142,1.768c.305-.277,1.271-1.052,1.849-1.56-.374.275-.974.691-1.533,1.058a7.959,7.959,0,0,1-1.02.6,9.555,9.555,0,0,1,.614-.821,4.752,4.752,0,0,1,.621-.606,4.828,4.828,0,0,0-1.045.794,2.8,2.8,0,0,0-.495.571,4.879,4.879,0,0,1,.709-1.434c-.969,1.083-.907,1.617-.876,1.983a2.768,2.768,0,0,1-.287-.394.823.823,0,0,0,.363.679,2.031,2.031,0,0,0,4.021,0,.822.822,0,0,0,.365-.7A.205.205,0,0,0,129.44,110.8Zm-1.2,2.907a1.127,1.127,0,0,1-.164-.392h0a2.067,2.067,0,0,1-2.012,0,1.048,1.048,0,0,1-.164.388,2.717,2.717,0,0,0,1.171.879A2.717,2.717,0,0,0,128.238,113.7Z" transform="translate(-0.783 -0.781)" fill="#fff" opacity="0.4"/>
      <path id="Path_1736" data-name="Path 1736" d="M131.036,115.174a1.458,1.458,0,0,0-1-1.382c-.694-.272-1.636-.572-1.988-.736a.818.818,0,0,1-.466-.6v-.117a2.894,2.894,0,0,0,.968-1.407,1.261,1.261,0,0,0,.423-.977.476.476,0,0,0-.121-.335,4.3,4.3,0,0,0,.157-.49,2.806,2.806,0,0,0-.181-1.984,1.549,1.549,0,0,0-.906-.76,1.514,1.514,0,0,0-.374-.07c-.292-.672-1.037-.651-1.717-.5a4.128,4.128,0,0,0-1.623.8,2.642,2.642,0,0,0-.833,1.291,2.6,2.6,0,0,0,.1,1.377c.05.114.118.247.193.382a.553.553,0,0,0-.081.29,1.258,1.258,0,0,0,.422.977,2.89,2.89,0,0,0,.969,1.407c0,.052,0,.1,0,.117a.837.837,0,0,1-.479.6c-.345.176-1.186.417-1.974.731a1.457,1.457,0,0,0-1,1.382v2.431a7.629,7.629,0,0,0,9.5,0Zm-6.763-4.431a.823.823,0,0,1-.363-.679,2.769,2.769,0,0,0,.287.394c-.031-.366-.093-.9.876-1.983a4.879,4.879,0,0,0-.709,1.434,2.8,2.8,0,0,1,.495-.571,4.828,4.828,0,0,1,1.045-.794,4.751,4.751,0,0,0-.621.606,9.557,9.557,0,0,0-.614.821,7.958,7.958,0,0,0,1.02-.6c.559-.367,1.159-.782,1.533-1.058-.578.508-1.544,1.283-1.849,1.56a5.051,5.051,0,0,0,2.142-1.768,2.144,2.144,0,0,1,.6.649,2.635,2.635,0,0,1,.229,1.708,4.734,4.734,0,0,0,.314-.441.2.2,0,0,1,0,.031.822.822,0,0,1-.365.7,2.031,2.031,0,0,1-4.021,0Zm1.749,4.488c0,.036-.026.312-.065.711a9.439,9.439,0,0,1-1.425-2.558c.04-.017.077-.035.11-.051a1.341,1.341,0,0,0,.266-.179,3.07,3.07,0,0,0,1.263.927c-.179.226-.342.457-.455.6h0C125.827,114.879,126.022,115.231,126.022,115.231Zm-.907-2.311a1.048,1.048,0,0,0,.164-.388,2.067,2.067,0,0,0,2.012,0h0a1.127,1.127,0,0,0,.164.392,2.717,2.717,0,0,1-1.169.876A2.717,2.717,0,0,1,125.115,112.92Zm1.495,3.021c-.037-.4-.062-.674-.065-.71,0,0,.2-.351.308-.546h0c-.113-.147-.275-.375-.454-.6a3.077,3.077,0,0,0,1.261-.921,1.158,1.158,0,0,0,.264.172c.033.016.071.032.111.049A9.369,9.369,0,0,1,126.609,115.941Z" fill="#a5a5a5" opacity="0.2"/>
    </g>
  </g>
</svg>
