<svg xmlns="http://www.w3.org/2000/svg" width="23.44" height="23.44" viewBox="0 0 23.44 23.44">
  <g id="Group_1652" data-name="Group 1652" transform="translate(-5362.222 -2239.5)">
    <path id="Path_3696" data-name="Path 3696" d="M141.145,115.155a11.72,11.72,0,1,1-11.721-11.719A11.72,11.72,0,0,1,141.145,115.155Z" transform="translate(5244.517 2136.064)" fill="#fff" opacity="0.4"/>
    <g id="Group_1562" data-name="Group 1562" transform="translate(5367.711 2242.84)" opacity="0.2">
      <path id="Path_3708" data-name="Path 3708" d="M20.986,48.959c-.333.079-.275,1.028-.2,1.411.083.4.13.773.344.929a1.382,1.382,0,0,1,.321.425.378.378,0,0,0,.491.079l0,0c-.2-.511-.45-1.149-.637-1.583A6.427,6.427,0,0,1,20.986,48.959Z" transform="translate(-19.671 -41.419)" fill="none"/>
      <path id="Path_3709" data-name="Path 3709" d="M73.773,48.932a17.181,17.181,0,0,1-.795,2.9.4.4,0,0,0,.355-.133,1.314,1.314,0,0,1,.319-.425c.214-.156.26-.527.343-.929S74.135,48.966,73.773,48.932Z" transform="translate(-62.958 -41.396)" fill="none"/>
      <path id="Path_3710" data-name="Path 3710" d="M26.688,12.706c-.007-.108-.016-.213-.026-.317a17.96,17.96,0,0,0-.291-2.375c-.564-3.051-2.815-4.9-6.776-4.454a10.658,10.658,0,0,1-2.258.358A.8.8,0,0,1,16.656,5s-.191.169-.094.86.5.6.93.837l-.506-.043c-.7.151-2.423,1.654-2.423,6.1A12.873,12.873,0,0,0,15,15.449a2.4,2.4,0,0,1,.065-.825c.025-.1.052-.182.078-.26-.017.139-.032.285-.044.437s-.031.323-.029.491,0,.339-.007.509c.013.172.025.343.037.51a3.764,3.764,0,0,0,.071.492,3.437,3.437,0,0,0,.1.453c.042.142.087.275.128.4.022.06.037.12.062.173l.073.15c.045.1.089.175.123.241.07.132.112.2.112.2s-.015-.085-.046-.23c-.016-.072-.034-.161-.059-.259a2.437,2.437,0,0,1-.068-.334c-.018-.123-.039-.256-.065-.4a1.415,1.415,0,0,1-.027-.217c0-.075-.014-.15-.022-.228s-.015-.14-.022-.212a5.7,5.7,0,0,0,.793,1.9,1.144,1.144,0,0,1,.024.132c.014.106.03.206.048.3a1.8,1.8,0,0,1,.037.258c.007.078.017.148.025.2.017.114.032.184.032.184s.03-.059.073-.169c.021-.055.049-.122.072-.2.014-.04.027-.082.042-.126s.017-.092.027-.142.021-.131.029-.2a4.26,4.26,0,0,0,.188.513,10.85,10.85,0,0,0,.692,1.214l.026.018a1.918,1.918,0,0,0,.6-.439,4.2,4.2,0,0,0,.482-.719l.01-.019c.017-.033.033-.067.049-.1l.015-.033c.017-.04.034-.082.05-.123a.047.047,0,0,0,0-.012c.018-.049.034-.1.049-.148h0c.013-.049.024-.1.033-.145a.029.029,0,0,1,0-.009s0-.01,0-.014c.005-.031.01-.063.013-.094,0-.009,0-.017,0-.025s0-.04,0-.062.007-.069.007-.1,0-.052,0-.079a.107.107,0,0,0,0-.038s0,0,0,0a.41.41,0,0,0,0-.052V18.14a.267.267,0,0,0,0-.028l-.048-.03c-.334-.219-.653-.439-.8-.55a3.591,3.591,0,0,1-1.109-1.881c0-.012-.008-.024-.012-.036.188.482.3.771.206.492a8.53,8.53,0,0,1-.469-2.306c.011-1.021,2.864-2.082,4.567-3.818-.1.146-.227.281-.347.418s-.256.274-.4.4-.276.243-.41.358-.273.218-.409.309-.26.184-.381.262c-.24.158-.445.286-.591.372s-.228.14-.228.14.094-.027.257-.08c.082-.025.18-.059.29-.106s.237-.093.368-.159l.208-.1.215-.121c.15-.079.3-.181.452-.283a5.5,5.5,0,0,0,.45-.354c.15-.126.287-.269.427-.411a5.864,5.864,0,0,0,.369-.465,4.668,4.668,0,0,0,.3-.488,4.141,4.141,0,0,0,.216-.49c.029-.08.059-.156.084-.232l.058-.223c.006-.022.009-.042.015-.064s.009-.021.013-.032c.025.039.05.078.076.116,0,.007,0,.013,0,.02a3.888,3.888,0,0,1-.061.42l-.085.429L22,10.034a3.413,3.413,0,0,1-.142.4,3.608,3.608,0,0,1-.151.368c-.058.112-.11.222-.157.323a2.175,2.175,0,0,1-.146.269c-.048.078-.086.149-.119.207-.065.116-.1.186-.1.186s.057-.051.153-.145c.048-.047.107-.1.172-.173a1.508,1.508,0,0,0,.205-.24c.068-.094.142-.2.216-.308a2.334,2.334,0,0,0,.2-.368,2.493,2.493,0,0,0,.178-.413l.14-.444c.027-.153.053-.307.079-.458a1.009,1.009,0,0,0,.019-.127,15.2,15.2,0,0,1,1.346,1.5,7.6,7.6,0,0,1,.607,4.8l-.014-.005c-.025.081-.051.162-.08.241A3.583,3.583,0,0,1,23.3,17.531c-.163.128-.56.4-.947.648v.03c0,.022,0,.04,0,.062a.138.138,0,0,0,0,.021.123.123,0,0,1,0-.021.272.272,0,0,0,0,.041v.011a.13.13,0,0,1,0,.02l0,0c0,.017,0,.032,0,.05,0,.036,0,.069.007.1a1.415,1.415,0,0,0,.052.326c.011.043.024.085.038.126l0,.009c.014.042.03.084.048.126,0,0,0,0,0,0,.017.042.036.084.055.124.008.016.016.031.024.046s.021.043.032.064a4.175,4.175,0,0,0,.463.681,1.819,1.819,0,0,0,.536.407,2.077,2.077,0,0,0,.283-.488,6.33,6.33,0,0,1,.815-2.107c-.02.1-.038.2-.049.3a3.032,3.032,0,0,0-.018.424,2.425,2.425,0,0,0,.033.356,2.193,2.193,0,0,0,.058.267c.017.073.042.128.054.167s.023.057.023.057.011-.084.03-.232c.009-.072.025-.16.04-.259s.042-.207.068-.325a7.1,7.1,0,0,1,.249-.781c.107-.283.233-.58.359-.888.072-.178.14-.36.2-.543a2.937,2.937,0,0,0,.372-.95c-.012.139-.021.275-.04.4-.025.162-.036.316-.065.445s-.037.249-.066.344c-.05.192-.071.3-.071.3s.065-.094.168-.262a2.568,2.568,0,0,0,.162-.324,3.388,3.388,0,0,0,.169-.44,5.217,5.217,0,0,0,.147-.537c.036-.193.083-.4.1-.611s.05-.433.059-.657.011-.452.014-.679S26.709,12.927,26.688,12.706ZM16.84,15.382l0,0a.378.378,0,0,1-.491-.079,1.379,1.379,0,0,0-.321-.425c-.215-.156-.261-.527-.344-.929-.079-.382-.136-1.332.2-1.411A6.44,6.44,0,0,0,16.2,13.8C16.39,14.234,16.64,14.871,16.84,15.382ZM25.6,13.951c-.083.4-.13.773-.343.929a1.314,1.314,0,0,0-.319.425.406.406,0,0,1-.355.133,17.181,17.181,0,0,0,.795-2.9C25.74,12.57,25.682,13.559,25.6,13.951Z" transform="translate(-14.563 -5)" fill="#a5a5a5"/>
    </g>
  </g>
</svg>
