<svg xmlns="http://www.w3.org/2000/svg" width="23.44" height="23.44" viewBox="0 0 23.44 23.44">
  <g id="Group_1651" data-name="Group 1651" transform="translate(-5423.222 -2239.5)">
    <path id="Path_3696" data-name="Path 3696" d="M141.145,115.155a11.72,11.72,0,1,1-11.721-11.719A11.72,11.72,0,0,1,141.145,115.155Z" transform="translate(5305.517 2136.064)" fill="#fff" opacity="0.4"/>
    <g id="Group_1561" data-name="Group 1561" transform="translate(5430.77 2243.617)" opacity="0.2">
      <path id="Path_3703" data-name="Path 3703" d="M15.776,16.386a3.633,3.633,0,0,1,.588.052v-.461H12.93v.494a3.642,3.642,0,0,1,.767-.084Z" transform="translate(-10.656 -11.11)" fill="#a5a5a5"/>
      <path id="Path_3704" data-name="Path 3704" d="M16.627,8.5h-.276V8.177H13.969V8.5H13.69v1.881h2.937Z" transform="translate(-11.169 -5.844)" fill="#a5a5a5"/>
      <path id="Path_3705" data-name="Path 3705" d="M14.688,1.67V3.006h1.706V1.67a7.074,7.074,0,0,1,2.414,0l.3-.318a5.988,5.988,0,0,0-2.82-.292c-1.482.237-1.254.175-1.839-.016-.016,0-.159,0-.182.123a4.184,4.184,0,0,0-.013.5Z" transform="translate(-11.549 -0.999)" fill="#a5a5a5"/>
      <path id="Path_3706" data-name="Path 3706" d="M14.092,27.292a39.7,39.7,0,0,0-.53-6.96,2.342,2.342,0,0,0-2.512-2.1H8.975a2.339,2.339,0,0,0-2.512,2.1,39.421,39.421,0,0,0-.533,6.96C5.907,28.546,14.115,28.546,14.092,27.292Zm-.877-.065a11.4,11.4,0,0,1-3.2.354,11.439,11.439,0,0,1-3.2-.354l-.224-.075,0-.237c.013-.647.036-2.157.133-3.574l.019-.305h6.544l.02.3c.1,1.417.123,2.931.133,3.577l.006.237Z" transform="translate(-5.93 -12.636)" fill="#a5a5a5"/>
      <path id="Path_3707" data-name="Path 3707" d="M9.08,34.007c-.091,1.358-.117,2.772-.13,3.558a11.209,11.209,0,0,0,3.1.338,11.228,11.228,0,0,0,3.1-.338c-.013-.786-.039-2.2-.133-3.558Z" transform="translate(-7.969 -23.282)" fill="#a5a5a5"/>
    </g>
  </g>
</svg>
