<svg xmlns="http://www.w3.org/2000/svg" width="978.12" height="510.834" viewBox="0 0 978.12 510.834"><defs><style>.a{opacity:0.25;}.b,.c{fill:#c7c7c7;}.b,.e{fill-rule:evenodd;}.d,.e{fill:#fff;}</style></defs><g transform="translate(-207.495 -91.9)"><g class="a" transform="translate(779.383 -1329.734)"><g transform="translate(-571.887 1655.9)"><path class="b" d="M300.507,399.581l9.151-59.939,1.461.22L301.968,399.8Z" transform="translate(-159.042 -280.699)"/><rect class="c" width="1.108" height="77.455" transform="matrix(0.086, -0.996, 0.996, 0.086, 164.434, 147.881)"/><rect class="c" width="1.474" height="27.376" transform="translate(197.179 229.989) rotate(-35.179)"/><rect class="c" width="52.293" height="1.477" transform="translate(11.847 178.624) rotate(-15.201)"/><rect class="c" width="52.48" height="1.472" transform="translate(68.918 255.942) rotate(-58.32)"/><rect class="c" width="1.474" height="52.488" transform="matrix(0.779, -0.627, 0.627, 0.779, 55.643, 43.641)"/><path class="b" d="M287.168,397.285,265.059,384l.756-1.264,22.11,13.289Z" transform="translate(-172.197 -264.707)"/><rect class="c" width="74.439" height="1.474" transform="matrix(0.72, -0.694, 0.694, 0.72, 179.59, 104.172)"/><path class="b" d="M283.813,480.273,297,421.095l1.437.317L285.249,480.59Z" transform="translate(-165.237 -250.47)"/><rect class="c" width="1.476" height="43.779" transform="matrix(0.516, -0.856, 0.856, 0.516, 212.329, 190.593)"/><path class="b" d="M222.012,414.975a105.022,105.022,0,0,1,3.137-14.176,106.3,106.3,0,0,1,5.076-13.671,105.37,105.37,0,0,1,76.9-60.34l.265,1.448a104.206,104.206,0,0,0-80.822,72.981,103.372,103.372,0,0,0-3.09,13.973Z" transform="translate(-188.173 -285.469)"/><path class="b" d="M283.093,335.8l-5.723-26.345,1.443-.311,5.722,26.345Z" transform="translate(-167.628 -292.019)"/><path class="b" d="M224.231,383.862l50.962,12.416-.346,1.431-50.962-12.416Z" transform="translate(-187.477 -264.288)"/><path class="b" d="M236.4,455.56l42.2-31.019.871,1.189-42.2,31.02Z" transform="translate(-182.835 -249.191)"/><rect class="c" width="1.474" height="51.645" transform="translate(149.174 196.044) rotate(-12.937)"/><path class="b" d="M333.4,393.24l48.143-18.686.532,1.374-48.145,18.686Z" transform="translate(-146.834 -267.742)"/><path class="b" d="M274.794,310.505a130.971,130.971,0,0,1,86.089,7.688q2.408,1.088,4.722,2.243t4.622,2.421l-.709,1.293q-2.238-1.228-4.57-2.393t-4.671-2.22a129.412,129.412,0,0,0-85.125-7.6Z" transform="translate(-168.584 -292.989)"/><path class="b" d="M266.452,386.592A52.9,52.9,0,0,1,350.62,383l-1.137.941a51.436,51.436,0,0,0-81.819,3.485Z" transform="translate(-171.68 -271.709)"/><path class="b" d="M367.933,336.354a131.676,131.676,0,0,1,24.191,145.514,130.656,130.656,0,0,1-8.723,16.005l-1.242-.791a128.96,128.96,0,0,0,8.626-15.825,130.747,130.747,0,0,0,6.381-16.948,129.965,129.965,0,0,0-30.3-126.938Z" transform="translate(-134.414 -281.919)"/><path class="b" d="M387.249,348.047a17.272,17.272,0,1,0-22.848,8.639A17.272,17.272,0,0,0,387.249,348.047Z" transform="translate(-139.104 -286.627)"/><path class="b" d="M339.766,384.26a12.038,12.038,0,1,0-15.923,6.022A12.039,12.039,0,0,0,339.766,384.26Z" transform="translate(-153.012 -270.446)"/><rect class="c" width="26.958" height="1.475" transform="translate(185.987 52.902) rotate(-62.193)"/><path class="b" d="M356.857,326.306a12.038,12.038,0,1,0-15.923,6.021A12.038,12.038,0,0,0,356.857,326.306Z" transform="translate(-146.67 -291.954)"/><path class="b" d="M339.973,338.428a5.234,5.234,0,1,0-6.924,2.617A5.234,5.234,0,0,0,339.973,338.428Z" transform="translate(-148.109 -283.891)"/><path class="b" d="M298.314,321.033a17.271,17.271,0,1,0-22.847,8.639A17.271,17.271,0,0,0,298.314,321.033Z" transform="translate(-172.109 -296.653)"/><path class="b" d="M288.107,331.343a5.234,5.234,0,1,0-6.924,2.618A5.235,5.235,0,0,0,288.107,331.343Z" transform="translate(-167.357 -286.521)"/><path class="b" d="M267.367,397.01a5.234,5.234,0,1,0-6.923,2.617A5.236,5.236,0,0,0,267.367,397.01Z" transform="translate(-175.054 -262.15)"/><path class="b" d="M244.432,396.164a17.272,17.272,0,1,0-22.847,8.639A17.273,17.273,0,0,0,244.432,396.164Z" transform="translate(-192.107 -268.77)"/><path class="b" d="M279.865,432.115a10.469,10.469,0,1,0-13.847,5.236A10.466,10.466,0,0,0,279.865,432.115Z" transform="translate(-174.129 -251.864)"/><path class="b" d="M256.982,459.489a17.272,17.272,0,1,0-22.847,8.638A17.271,17.271,0,0,0,256.982,459.489Z" transform="translate(-187.448 -245.269)"/><path class="b" d="M335.664,488.7a17.272,17.272,0,1,0-22.848,8.638A17.271,17.271,0,0,0,335.664,488.7Z" transform="translate(-158.248 -234.429)"/><path class="b" d="M400.231,463.462a17.272,17.272,0,1,0-22.848,8.639A17.273,17.273,0,0,0,400.231,463.462Z" transform="translate(-134.286 -243.794)"/><path class="b" d="M381.745,381.939a10.469,10.469,0,1,0-13.848,5.235A10.47,10.47,0,0,0,381.745,381.939Z" transform="translate(-136.32 -270.486)"/><path class="b" d="M271.523,386.763a5.235,5.235,0,1,0-6.924,2.617A5.237,5.237,0,0,0,271.523,386.763Z" transform="translate(-173.512 -265.953)"/><path class="b" d="M388.144,406.227a101.737,101.737,0,0,1-9.366,38.236,106.776,106.776,0,0,1-38,44.136l-.813-1.227a105.326,105.326,0,0,0,37.48-43.526,100.15,100.15,0,0,0,9.232-37.682Z" transform="translate(-144.4 -256.011)"/><path class="b" d="M394.8,420.832a17.272,17.272,0,1,0-22.848,8.639A17.272,17.272,0,0,0,394.8,420.832Z" transform="translate(-136.303 -259.615)"/><path class="b" d="M348.177,468.23a5.234,5.234,0,1,0-6.924,2.617A5.235,5.235,0,0,0,348.177,468.23Z" transform="translate(-145.064 -235.719)"/><path class="b" d="M299.364,433.953q-1.288-.3-2.554-.728t-2.48-.976a27.1,27.1,0,0,1-13.552-35.841,27.408,27.408,0,0,1,2.294-4.1,26.874,26.874,0,0,1,2.955-3.629l1.056,1.027a25.335,25.335,0,0,0-2.793,3.428,25.879,25.879,0,0,0-2.166,3.879,25.619,25.619,0,0,0,12.815,33.89q1.162.527,2.346.926,1.2.405,2.41.687Z" transform="translate(-167.256 -262.5)"/><path class="b" d="M301.773,383a26.733,26.733,0,0,1,3.181.787,27.666,27.666,0,0,1,3.078,1.171A27.111,27.111,0,0,1,323.968,410.7q-.047,1.209-.2,2.426t-.421,2.4l-1.436-.318c.167-.753.3-1.51.4-2.265s.163-1.527.191-2.291a25.613,25.613,0,0,0-15.07-24.337,25.761,25.761,0,0,0-5.916-1.856Z" transform="translate(-158.67 -264.606)"/><path class="b" d="M373.615,429.239a79.044,79.044,0,0,1-90.01,39.979l.369-1.425a77.563,77.563,0,0,0,88.33-39.235Z" transform="translate(-165.314 -247.7)"/><path class="b" d="M267.139,357.224A79.469,79.469,0,0,1,294.6,346.263a78.632,78.632,0,0,1,29.458-.128l-.265,1.448a77.671,77.671,0,0,0-55.868,10.881Z" transform="translate(-171.425 -278.782)"/><path class="b" d="M394.148,480.916a131.445,131.445,0,0,1-131.419,12.2q-4.683-2.164-9.133-4.656-4.5-2.519-8.715-5.325l.814-1.229q4.183,2.785,8.616,5.266,4.381,2.452,9.036,4.606a129.947,129.947,0,0,0,129.947-12.063Z" transform="translate(-179.685 -228.715)"/><path class="b" d="M252.564,336.354a12.037,12.037,0,1,0-15.923,6.022A12.036,12.036,0,0,0,252.564,336.354Z" transform="translate(-185.374 -288.224)"/><path class="b" d="M257.15,425.658a12.038,12.038,0,1,0-15.924,6.021A12.039,12.039,0,0,0,257.15,425.658Z" transform="translate(-183.673 -255.082)"/><path class="b" d="M343.526,386.378A52.867,52.867,0,0,1,305.665,460.3l-.282-1.449a51.383,51.383,0,0,0,36.806-71.859Z" transform="translate(-157.232 -263.354)"/><path class="b" d="M300.143,424.78a5.234,5.234,0,1,0-6.924,2.619A5.234,5.234,0,0,0,300.143,424.78Z" transform="translate(-162.89 -251.844)"/><path class="b" d="M295.789,400.924a12.037,12.037,0,1,0-15.923,6.021A12.037,12.037,0,0,0,295.789,400.924Z" transform="translate(-169.333 -264.262)"/><path class="b" d="M282.754,369.745a17.27,17.27,0,1,0-22.846,8.638A17.269,17.269,0,0,0,282.754,369.745Z" transform="translate(-177.883 -278.574)"/><path class="b" d="M327.173,357.778a17.271,17.271,0,1,0-22.847,8.639A17.27,17.27,0,0,0,327.173,357.778Z" transform="translate(-161.399 -283.016)"/><path class="b" d="M268.471,495.381a17.271,17.271,0,1,0-22.847,8.639A17.272,17.272,0,0,0,268.471,495.381Z" transform="translate(-183.184 -231.949)"/><path class="b" d="M299.949,466.384a12.038,12.038,0,1,0-15.924,6.021A12.04,12.04,0,0,0,299.949,466.384Z" transform="translate(-167.789 -239.968)"/><path class="b" d="M361.262,440.13a12.038,12.038,0,1,0-15.923,6.022A12.036,12.036,0,0,0,361.262,440.13Z" transform="translate(-145.035 -249.711)"/><path class="b" d="M327.072,451.293a17.272,17.272,0,1,0-22.847,8.639A17.273,17.273,0,0,0,327.072,451.293Z" transform="translate(-161.437 -248.31)"/><path class="b" d="M331.526,412.314a12.038,12.038,0,1,0-15.924,6.022A12.037,12.037,0,0,0,331.526,412.314Z" transform="translate(-156.07 -260.034)"/><path class="b" d="M307.227,387.007a5.234,5.234,0,1,0-6.924,2.619A5.231,5.231,0,0,0,307.227,387.007Z" transform="translate(-160.261 -265.862)"/><path class="b" d="M339.781,392.253a5.234,5.234,0,1,0-6.924,2.619A5.235,5.235,0,0,0,339.781,392.253Z" transform="translate(-148.179 -263.916)"/><path class="b" d="M367.314,488.612a12.038,12.038,0,1,0-15.924,6.019A12.039,12.039,0,0,0,367.314,488.612Z" transform="translate(-142.789 -231.719)"/><path class="b" d="M220.345,435.659a12.038,12.038,0,1,0-15.924,6.021A12.04,12.04,0,0,0,220.345,435.659Z" transform="translate(-197.332 -251.371)"/><path class="b" d="M274.343,454.6a5.235,5.235,0,1,0-6.924,2.619A5.235,5.235,0,0,0,274.343,454.6Z" transform="translate(-172.465 -240.778)"/><path class="b" d="M205.289,459.132a130.513,130.513,0,0,1-3.064-27.8,131.856,131.856,0,0,1,2.923-27.913q1.039-4.87,2.428-9.607,1.154-3.947,2.531-7.754l-.016-.007a130.651,130.651,0,0,1,12.277-25.127,132.084,132.084,0,0,1,17.4-22.024q3.507-3.585,7.187-6.82,3.725-3.28,7.649-6.241l.89,1.178q-3.865,2.918-7.564,6.171-3.665,3.227-7.113,6.746a130.428,130.428,0,0,0-17.206,21.776,128.967,128.967,0,0,0-11.55,23.249l.015.006q-1.709,4.549-3.09,9.258-1.362,4.65-2.4,9.5a130.533,130.533,0,0,0-2.894,27.608,128.987,128.987,0,0,0,3.032,27.481Z" transform="translate(-195.516 -285.821)"/><path class="b" d="M268.515,434.669a52.57,52.57,0,0,1-7.915-19.022,53.161,53.161,0,0,1-.034-20.682l1.449.282a51.707,51.707,0,0,0,.033,20.112,51.144,51.144,0,0,0,7.691,18.49Z" transform="translate(-174.235 -260.167)"/><path class="b" d="M334.847,334.706a104.732,104.732,0,0,1,27.5,21.336A105.89,105.89,0,0,1,381.432,385.3l-1.352.59A103.793,103.793,0,0,0,334.148,336Z" transform="translate(-146.557 -282.53)"/><path class="b" d="M275.219,462.983a79,79,0,0,1-12.891-10.667q-2.505-2.565-4.769-5.345l-.014.012a79.26,79.26,0,0,1-15.11-29.678l1.426-.376a78.023,78.023,0,0,0,5.875,15.361q1.588,3.116,3.454,6.089l0,0a77.857,77.857,0,0,0,22.837,23.376Z" transform="translate(-180.593 -252.015)"/><path class="b" d="M297.082,489.256a104.993,104.993,0,0,1-48.491-26.616,106.492,106.492,0,0,1-7.566-8.091,105.223,105.223,0,0,1-6.653-8.792l1.216-.825a103.785,103.785,0,0,0,6.562,8.671,104.319,104.319,0,0,0,71.689,36.82,103.372,103.372,0,0,0,27.442-1.544l.277,1.449a104.823,104.823,0,0,1-44.475-1.078Z" transform="translate(-183.585 -241.623)"/></g><path class="d" d="M341.637,587.966a1.1,1.1,0,1,0,1.1,1.1,1.1,1.1,0,0,0-1.1-1.1Zm-4.937,1.418a4.621,4.621,0,1,0,4.621,4.621,4.674,4.674,0,0,0-4.569-4.621Zm0,7.615a2.968,2.968,0,1,1,.052,0Zm9.4-6.827a5.672,5.672,0,0,0-5.672-5.672h-7.457a5.672,5.672,0,0,0-5.672,5.672v7.457a5.672,5.672,0,0,0,5.672,5.672h7.457a5.672,5.672,0,0,0,5.672-5.672Zm-1.786,7.457a3.886,3.886,0,0,1-3.886,3.886h-7.457a3.886,3.886,0,0,1-3.886-3.886v-7.457a3.886,3.886,0,0,1,3.886-3.886h7.457a3.886,3.886,0,0,1,3.886,3.886Z" transform="translate(-675.985 1116.462)"/><path class="d" d="M333.85,586.083a.5.5,0,1,0,.5.5A.5.5,0,0,0,333.85,586.083Zm-2.255.648a2.111,2.111,0,1,0,2.111,2.111,2.135,2.135,0,0,0-2.087-2.111Zm0,3.479a1.356,1.356,0,1,1,.024,0Zm4.294-3.119A2.591,2.591,0,0,0,333.3,584.5h-3.407a2.591,2.591,0,0,0-2.591,2.591V590.5a2.591,2.591,0,0,0,2.591,2.591H333.3a2.591,2.591,0,0,0,2.591-2.591Zm-.816,3.407a1.775,1.775,0,0,1-1.775,1.775h-3.407a1.775,1.775,0,0,1-1.775-1.775v-3.407a1.775,1.775,0,0,1,1.775-1.775H333.3a1.775,1.775,0,0,1,1.775,1.775Z" transform="translate(-807.519 1243.385)"/><path class="d" d="M337.485,586.962a.783.783,0,1,0,.783.784.784.784,0,0,0-.783-.784Zm-3.507,1.007a3.283,3.283,0,1,0,3.283,3.283,3.32,3.32,0,0,0-3.246-3.283Zm0,5.41a2.108,2.108,0,1,1,.037,0Zm6.678-4.85a4.029,4.029,0,0,0-4.029-4.029h-5.3a4.029,4.029,0,0,0-4.029,4.029v5.3a4.029,4.029,0,0,0,4.029,4.029h5.3a4.029,4.029,0,0,0,4.029-4.029Zm-1.268,5.3a2.761,2.761,0,0,1-2.761,2.761h-5.3a2.761,2.761,0,0,1-2.761-2.761v-5.3a2.761,2.761,0,0,1,2.761-2.761h5.3a2.761,2.761,0,0,1,2.761,2.761Z" transform="translate(-744.161 1312.544)"/><path class="d" d="M630.18,595.766a3.722,3.722,0,0,1-1.613-.753,7.734,7.734,0,0,1-1.291,3.513.359.359,0,0,1-.645-.215c-.108-2.151.645-3.836,1-5.628-.681-1.147.072-3.513,1.542-2.94s-1.542,4.338.681,4.768,3.3-4.051,1.864-5.557c-2.115-2.115-6.13-.036-5.628,3.011.108.574.574.86.5,1.434a.5.5,0,0,1-.717.394c-.932-.43-1.219-1.4-1.183-2.581a4.493,4.493,0,0,1,4.087-4.158c2.008-.215,4.911.932,5.234,3.3s-1.147,5.592-3.836,5.377Z" transform="translate(-1025.534 1172.344)"/><path class="d" d="M630.18,595.766a3.722,3.722,0,0,1-1.613-.753,7.734,7.734,0,0,1-1.291,3.513.359.359,0,0,1-.645-.215c-.108-2.151.645-3.836,1-5.628-.681-1.147.072-3.513,1.542-2.94s-1.542,4.338.681,4.768,3.3-4.051,1.864-5.557c-2.115-2.115-6.13-.036-5.628,3.011.108.574.574.86.5,1.434a.5.5,0,0,1-.717.394c-.932-.43-1.219-1.4-1.183-2.581a4.493,4.493,0,0,1,4.087-4.158c2.008-.215,4.911.932,5.234,3.3s-1.147,5.592-3.836,5.377Z" transform="translate(-1091.276 1079.531)"/><path class="d" d="M177.017,595.663a3.463,3.463,0,0,0-3.463-3.463h-8.891a3.463,3.463,0,0,0-3.463,3.463v4.165a3.463,3.463,0,0,0,3.463,3.463H173.6a3.463,3.463,0,0,0,3.463-3.463Zm-5.615,2.293-3.556,1.965c-.14.094-.281-.047-.281-.187V595.71c0-.187.14-.281.281-.187l3.6,2.059a.234.234,0,0,1-.047.374Z" transform="translate(-497.492 1212.294)"/><path class="d" d="M171.586,594.474a2.274,2.274,0,0,0-2.274-2.274h-5.839a2.274,2.274,0,0,0-2.274,2.274v2.735a2.274,2.274,0,0,0,2.274,2.274h5.869a2.274,2.274,0,0,0,2.274-2.274ZM167.9,595.98l-2.335,1.291c-.092.062-.184-.031-.184-.123V594.5c0-.123.092-.184.184-.123l2.366,1.352a.154.154,0,0,1-.031.246Z" transform="translate(-623.03 1191.639)"/><path class="e" d="M284.947,591.813v6.575a.158.158,0,0,0,.158.158h2.456a.158.158,0,0,0,.158-.158v-6.654H289.5a.158.158,0,0,0,.158-.158l.158-2.02a.158.158,0,0,0-.158-.2h-1.941v-1.426a.594.594,0,0,1,.594-.594h1.347a.158.158,0,0,0,.158-.158v-2.02a.158.158,0,0,0-.158-.158h-2.3a2.456,2.456,0,0,0-2.456,2.456v1.9h-1.149a.158.158,0,0,0-.158.158v2.02a.158.158,0,0,0,.158.158h1.188Z" transform="translate(-608.429 1276.951)"/><path class="e" d="M284.947,591.813v6.575a.158.158,0,0,0,.158.158h2.456a.158.158,0,0,0,.158-.158v-6.654H289.5a.158.158,0,0,0,.158-.158l.158-2.02a.158.158,0,0,0-.158-.2h-1.941v-1.426a.594.594,0,0,1,.594-.594h1.347a.158.158,0,0,0,.158-.158v-2.02a.158.158,0,0,0-.158-.158h-2.3a2.456,2.456,0,0,0-2.456,2.456v1.9h-1.149a.158.158,0,0,0-.158.158v2.02a.158.158,0,0,0,.158.158h1.188Z" transform="translate(-823.057 1185.428)"/><path class="e" d="M285.281,593.5v8.206a.2.2,0,0,0,.2.2h3.065a.2.2,0,0,0,.2-.2v-8.3h2.224a.2.2,0,0,0,.2-.2l.2-2.521a.2.2,0,0,0-.2-.247h-2.422v-1.78a.741.741,0,0,1,.742-.741h1.681a.2.2,0,0,0,.2-.2V585.2a.2.2,0,0,0-.2-.2H288.3a3.065,3.065,0,0,0-3.065,3.065v2.373H283.8a.2.2,0,0,0-.2.2v2.521a.2.2,0,0,0,.2.2h1.483Z" transform="translate(-709.747 1128.963)"/><path class="e" d="M284.708,590.605v5.409a.13.13,0,0,0,.13.13h2.02a.13.13,0,0,0,.13-.13V590.54h1.466a.13.13,0,0,0,.13-.13l.13-1.662a.13.13,0,0,0-.13-.163h-1.6v-1.173a.489.489,0,0,1,.489-.489h1.108a.13.13,0,0,0,.13-.13V585.13a.13.13,0,0,0-.13-.13H286.7a2.02,2.02,0,0,0-2.02,2.02v1.564h-.945a.13.13,0,0,0-.13.13v1.662a.13.13,0,0,0,.13.13h.978Z" transform="translate(-737.428 1287.175)"/><g transform="translate(-363.303 1903.404)"><path class="d" d="M233.446,589.392a4.564,4.564,0,0,1-1.134.334c.167-.033.434-.367.567-.5a2.068,2.068,0,0,0,.367-.667c0-.033.033-.033,0-.067h-.067a5.737,5.737,0,0,1-1.334.5h-.1l-.133-.133a2.367,2.367,0,0,0-.634-.4,2.268,2.268,0,0,0-1-.167,2.368,2.368,0,0,0-.934.267,2.435,2.435,0,0,0-.767.634,2.335,2.335,0,0,0-.467.9,2.468,2.468,0,0,0-.033.967c0,.067,0,.067-.033.067a7.161,7.161,0,0,1-4.6-2.335c-.067-.067-.067-.067-.133,0a2.328,2.328,0,0,0,.4,2.735l.267.234a2.335,2.335,0,0,1-.9-.233c-.067-.033-.067,0-.1.033a1.4,1.4,0,0,0,0,.267,2.368,2.368,0,0,0,1.468,1.868l.3.1a2.636,2.636,0,0,1-.867.033c-.067,0-.1.033-.067.067a2.412,2.412,0,0,0,1.835,1.534h.233a3.159,3.159,0,0,1-1.234.667,4.47,4.47,0,0,1-1.9.233h-.167c-.033.033,0,.033.033.067l.4.233a6.269,6.269,0,0,0,1.267.5,6.707,6.707,0,0,0,6.538-1.534,6.015,6.015,0,0,0,1.8-5c0-.067.1-.1.133-.133a4.4,4.4,0,0,0,.9-.934.267.267,0,0,0,.067-.167h-.033Z" transform="translate(-222.259 -588.288)"/><path class="e" d="M232.4,615.7Z" transform="translate(-229.017 -606.557)"/><path class="e" d="M232.4,615.7Z" transform="translate(-229.017 -606.557)"/><path class="e" d="M233.5,615.8Z" transform="translate(-229.75 -606.623)"/><path class="e" d="M245.3,588.4Z" transform="translate(-237.615 -588.362)"/></g><g transform="translate(-515.413 1817.037)"><path class="d" d="M233.446,589.392a4.564,4.564,0,0,1-1.134.334c.167-.033.434-.367.567-.5a2.068,2.068,0,0,0,.367-.667c0-.033.033-.033,0-.067h-.067a5.737,5.737,0,0,1-1.334.5h-.1l-.133-.133a2.367,2.367,0,0,0-.634-.4,2.268,2.268,0,0,0-1-.167,2.368,2.368,0,0,0-.934.267,2.435,2.435,0,0,0-.767.634,2.335,2.335,0,0,0-.467.9,2.468,2.468,0,0,0-.033.967c0,.067,0,.067-.033.067a7.161,7.161,0,0,1-4.6-2.335c-.067-.067-.067-.067-.133,0a2.328,2.328,0,0,0,.4,2.735l.267.234a2.335,2.335,0,0,1-.9-.233c-.067-.033-.067,0-.1.033a1.4,1.4,0,0,0,0,.267,2.368,2.368,0,0,0,1.468,1.868l.3.1a2.636,2.636,0,0,1-.867.033c-.067,0-.1.033-.067.067a2.412,2.412,0,0,0,1.835,1.534h.233a3.159,3.159,0,0,1-1.234.667,4.47,4.47,0,0,1-1.9.233h-.167c-.033.033,0,.033.033.067l.4.233a6.269,6.269,0,0,0,1.267.5,6.707,6.707,0,0,0,6.538-1.534,6.015,6.015,0,0,0,1.8-5c0-.067.1-.1.133-.133a4.4,4.4,0,0,0,.9-.934.267.267,0,0,0,.067-.167h-.033Z" transform="translate(-222.259 -588.288)"/><path class="e" d="M232.4,615.7Z" transform="translate(-229.017 -606.557)"/><path class="e" d="M232.4,615.7Z" transform="translate(-229.017 -606.557)"/><path class="e" d="M233.5,615.8Z" transform="translate(-229.75 -606.623)"/><path class="e" d="M245.3,588.4Z" transform="translate(-237.615 -588.362)"/></g><g transform="translate(-377.483 1681.041)"><path class="d" d="M233.446,589.392a4.564,4.564,0,0,1-1.134.334c.167-.033.434-.367.567-.5a2.068,2.068,0,0,0,.367-.667c0-.033.033-.033,0-.067h-.067a5.737,5.737,0,0,1-1.334.5h-.1l-.133-.133a2.367,2.367,0,0,0-.634-.4,2.268,2.268,0,0,0-1-.167,2.368,2.368,0,0,0-.934.267,2.435,2.435,0,0,0-.767.634,2.335,2.335,0,0,0-.467.9,2.468,2.468,0,0,0-.033.967c0,.067,0,.067-.033.067a7.161,7.161,0,0,1-4.6-2.335c-.067-.067-.067-.067-.133,0a2.328,2.328,0,0,0,.4,2.735l.267.234a2.335,2.335,0,0,1-.9-.233c-.067-.033-.067,0-.1.033a1.4,1.4,0,0,0,0,.267,2.368,2.368,0,0,0,1.468,1.868l.3.1a2.636,2.636,0,0,1-.867.033c-.067,0-.1.033-.067.067a2.412,2.412,0,0,0,1.835,1.534h.233a3.159,3.159,0,0,1-1.234.667,4.47,4.47,0,0,1-1.9.233h-.167c-.033.033,0,.033.033.067l.4.233a6.269,6.269,0,0,0,1.267.5,6.707,6.707,0,0,0,6.538-1.534,6.015,6.015,0,0,0,1.8-5c0-.067.1-.1.133-.133a4.4,4.4,0,0,0,.9-.934.267.267,0,0,0,.067-.167h-.033Z" transform="translate(-222.259 -588.288)"/><path class="e" d="M232.4,615.7Z" transform="translate(-229.017 -606.557)"/><path class="e" d="M232.4,615.7Z" transform="translate(-229.017 -606.557)"/><path class="e" d="M233.5,615.8Z" transform="translate(-229.75 -606.623)"/><path class="e" d="M245.3,588.4Z" transform="translate(-237.615 -588.362)"/></g><g transform="translate(-565.596 1829.384)"><path class="e" d="M104.325,585a5.309,5.309,0,0,0-4.45,8.194l-.8,1.78a.46.46,0,0,0,.43.644h.123l2.21-.614a5.309,5.309,0,1,0,2.486-10Zm0,9.7a4.389,4.389,0,0,1-2.21-.583l-.246-.061h-.092l-1.442.4.491-1.1a.46.46,0,0,0-.061-.46,4.388,4.388,0,1,1,3.56,1.811Z" transform="translate(-99.023 -585)"/><path class="e" d="M112.531,597.552a.921.921,0,0,0-.767-.184c-.215.092-.338.4-.46.552a.184.184,0,0,1-.246.061,3.5,3.5,0,0,1-1.749-1.5.215.215,0,0,1,.031-.307,1.2,1.2,0,0,0,.307-.522,1.136,1.136,0,0,0-.153-.614,1.442,1.442,0,0,0-.46-.675.614.614,0,0,0-.675.092,1.35,1.35,0,0,0-.46,1.074,1.535,1.535,0,0,0,.031.338,2.826,2.826,0,0,0,.338.767l.338.522a5.278,5.278,0,0,0,1.473,1.381,4.508,4.508,0,0,0,.921.43,2.056,2.056,0,0,0,1.074.184,1.319,1.319,0,0,0,.982-.737.645.645,0,0,0,.031-.368C113.084,597.828,112.746,597.675,112.531,597.552Z" transform="translate(-105.173 -591.445)"/></g><g transform="translate(-490.961 1731.926)"><path class="e" d="M106.39,585a7.376,7.376,0,0,0-6.182,11.384L99.1,598.857a.64.64,0,0,0,.6.9h.171l3.07-.853A7.376,7.376,0,1,0,106.39,585Zm0,13.473a6.1,6.1,0,0,1-3.07-.81l-.341-.085h-.128l-2,.554.682-1.535a.64.64,0,0,0-.085-.64,6.1,6.1,0,1,1,4.946,2.516Z" transform="translate(-99.023 -585)"/><path class="e" d="M114.336,598.819a1.279,1.279,0,0,0-1.066-.256c-.3.128-.469.554-.64.768a.256.256,0,0,1-.341.085,4.86,4.86,0,0,1-2.43-2.089.3.3,0,0,1,.043-.426,1.662,1.662,0,0,0,.426-.725,1.577,1.577,0,0,0-.213-.853,2,2,0,0,0-.64-.938.853.853,0,0,0-.938.128A1.876,1.876,0,0,0,107.9,596a2.131,2.131,0,0,0,.043.469,3.924,3.924,0,0,0,.469,1.066l.469.725a7.331,7.331,0,0,0,2.047,1.919,6.266,6.266,0,0,0,1.279.6,2.858,2.858,0,0,0,1.492.256,1.833,1.833,0,0,0,1.364-1.023.9.9,0,0,0,.043-.512C115.1,599.2,114.634,598.989,114.336,598.819Z" transform="translate(-104.113 -590.334)"/></g><path class="d" d="M33.8,593.573v-.157a.418.418,0,0,1,.235-.157,2.629,2.629,0,0,0,1.75-1.359c.418-.679.287-.705-.34-.914h-.1a1.361,1.361,0,0,1-.392-.209c-.287-.235-.1-.6.209-.679s.444.1.679.131.209-.026.209-.209a8.072,8.072,0,0,1-.026-1.306,2.195,2.195,0,0,1,1.123-1.881,2.874,2.874,0,0,1,3.083,0,2.195,2.195,0,0,1,1.123,1.7,7.523,7.523,0,0,1,0,1.463c-.026.209.026.261.235.209a1.05,1.05,0,0,1,.758-.078.418.418,0,0,1,.261.366.392.392,0,0,1-.157.287,1.539,1.539,0,0,1-.444.235l-.366.131c-.235.1-.314.261-.183.5a2.712,2.712,0,0,0,1.881,1.646.445.445,0,0,1,.261.157v.157a.706.706,0,0,1-.418.34,1.936,1.936,0,0,1-.549.157.418.418,0,0,0-.444.418c-.026.261-.131.287-.392.287h-.183a1.7,1.7,0,0,0-1.463.314l-.261.183a2.012,2.012,0,0,1-2.247.078l-.6-.392a1.36,1.36,0,0,0-.549-.209,3.53,3.53,0,0,0-.941.052c-.157.026-.314-.026-.314-.183a.7.7,0,0,0-.6-.523,1.7,1.7,0,0,1-.444-.131A.679.679,0,0,1,33.8,593.573Z" transform="translate(-375.18 1172.038)"/><path class="d" d="M33.8,596.629v-.223a.6.6,0,0,1,.335-.223,3.746,3.746,0,0,0,2.495-1.936c.6-.968.41-1.005-.484-1.3H36a1.934,1.934,0,0,1-.558-.3c-.41-.335-.149-.856.3-.968s.633.149.968.186.3-.037.3-.3a11.5,11.5,0,0,1-.037-1.862,3.127,3.127,0,0,1,1.6-2.681,4.1,4.1,0,0,1,4.394,0,3.127,3.127,0,0,1,1.6,2.42,10.722,10.722,0,0,1,0,2.085c-.037.3.037.372.335.3a1.5,1.5,0,0,1,1.08-.112.6.6,0,0,1,.372.521.558.558,0,0,1-.223.41,2.2,2.2,0,0,1-.633.335l-.521.186c-.335.149-.447.372-.261.707a3.866,3.866,0,0,0,2.681,2.346.633.633,0,0,1,.372.223v.223a1,1,0,0,1-.6.484,2.756,2.756,0,0,1-.782.223.6.6,0,0,0-.633.6c-.037.372-.186.41-.558.41h-.261a2.42,2.42,0,0,0-2.085.447l-.372.261a2.867,2.867,0,0,1-3.2.112l-.856-.558a1.937,1.937,0,0,0-.782-.3,5.034,5.034,0,0,0-1.34.074c-.223.037-.447-.037-.447-.261a1,1,0,0,0-.856-.745,2.422,2.422,0,0,1-.633-.186A.968.968,0,0,1,33.8,596.629Z" transform="translate(-559.664 1270.608)"/><path class="d" d="M511.536,584.957a6.309,6.309,0,1,0,5.726,5.726,6.309,6.309,0,0,0-5.726-5.726Zm3.574,3.173a5.179,5.179,0,0,1,1.021,2.845.109.109,0,0,1-.109.109,9.518,9.518,0,0,0-3.282-.109l-.109-.073-.365-.8a.11.11,0,0,1,.037-.109,8.753,8.753,0,0,0,2.626-1.823.109.109,0,0,1,.182,0Zm-.912-.8a7.62,7.62,0,0,1-2.37,1.641.109.109,0,0,1-.109-.036A19.964,19.964,0,0,0,510,586.306a.11.11,0,0,1,.073-.146l.912-.073a5.179,5.179,0,0,1,3.209,1.131.109.109,0,0,1-.036.109Zm-5.4-.729a18.117,18.117,0,0,1,1.823,2.662.11.11,0,0,1-.073.146,18.789,18.789,0,0,1-4.522.62.109.109,0,0,1-.109-.109,5.215,5.215,0,0,1,2.735-3.355Zm-2.917,4.559a19.545,19.545,0,0,0,5.252-.766h.109l.292.656a.109.109,0,0,1-.073.146,9.474,9.474,0,0,0-4.413,3.246.109.109,0,0,1-.146,0,4.888,4.888,0,0,1-1.131-3.246.109.109,0,0,1,.073,0Zm2.006,4.121a8.1,8.1,0,0,1,4.012-2.99.109.109,0,0,1,.109.073,19.877,19.877,0,0,1,.912,3.61.109.109,0,0,1-.073.109,5.178,5.178,0,0,1-5-.656.109.109,0,0,1,0-.109Zm6.09.037a20.946,20.946,0,0,0-.839-3.173.109.109,0,0,1,.073-.146,8.679,8.679,0,0,1,2.772.182.11.11,0,0,1,.073.109,5.216,5.216,0,0,1-1.933,3.063.109.109,0,0,1-.182-.036Z" transform="translate(-918.087 1211.826)"/><path class="d" d="M513.336,584.963a7.963,7.963,0,1,0,7.226,7.226,7.963,7.963,0,0,0-7.226-7.226Zm4.511,4a6.536,6.536,0,0,1,1.289,3.59.138.138,0,0,1-.138.138,12.014,12.014,0,0,0-4.142-.138l-.138-.092-.46-1.013a.138.138,0,0,1,.046-.138,11.048,11.048,0,0,0,3.314-2.3.138.138,0,0,1,.23,0Zm-1.151-1.013a9.624,9.624,0,0,1-2.992,2.071.138.138,0,0,1-.138-.046,25.2,25.2,0,0,0-2.163-3.314.138.138,0,0,1,.092-.184l1.151-.092a6.536,6.536,0,0,1,4.05,1.427.138.138,0,0,1-.046.138Zm-6.812-.921a22.872,22.872,0,0,1,2.3,3.36.138.138,0,0,1-.092.184,23.709,23.709,0,0,1-5.707.782.138.138,0,0,1-.138-.138,6.582,6.582,0,0,1,3.452-4.235Zm-3.682,5.754a24.673,24.673,0,0,0,6.628-.967h.138l.368.829a.138.138,0,0,1-.092.184,11.958,11.958,0,0,0-5.569,4.1.138.138,0,0,1-.184,0,6.168,6.168,0,0,1-1.427-4.1.138.138,0,0,1,.092,0Zm2.531,5.2a10.228,10.228,0,0,1,5.063-3.774.138.138,0,0,1,.138.092,25.088,25.088,0,0,1,1.151,4.557.138.138,0,0,1-.092.138,6.536,6.536,0,0,1-6.306-.828.138.138,0,0,1,0-.138Zm7.687.046a26.426,26.426,0,0,0-1.059-4,.138.138,0,0,1,.092-.184,10.953,10.953,0,0,1,3.5.23.138.138,0,0,1,.092.138,6.583,6.583,0,0,1-2.44,3.866.138.138,0,0,1-.23-.046Z" transform="translate(-1015.131 1319.742)"/><path class="d" d="M427.193,209.379v-2.424a.255.255,0,0,0-.255-.255h-1.446a.255.255,0,0,0-.255.213,4.624,4.624,0,0,1-1.786,2.594,1.488,1.488,0,0,1-.6.128.255.255,0,0,0-.255.255v1.829a.255.255,0,0,0,.255.255h.85a.255.255,0,0,1,.255.255c0,3.147.043,5.1.043,5.1a2.813,2.813,0,0,0,2.3,2.636,6.507,6.507,0,0,0,1.743.213,8.081,8.081,0,0,0,2.041-.34.255.255,0,0,0,.17-.255v-2.254a.255.255,0,0,0-.34-.255l-.85.255a1.658,1.658,0,0,1-1.7-.383.892.892,0,0,1-.128-.255,6,6,0,0,1-.085-1.063v-3.444a.255.255,0,0,1,.255-.255h2.509a.255.255,0,0,0,.255-.255v-1.829a.255.255,0,0,0-.255-.255h-2.466a.255.255,0,0,1-.255-.213Z" transform="translate(-848.598 1639.461)"/><path class="d" d="M425.778,208.554v-1.677a.177.177,0,0,0-.177-.177h-1a.177.177,0,0,0-.177.147,3.2,3.2,0,0,1-1.236,1.795,1.03,1.03,0,0,1-.412.088.177.177,0,0,0-.177.177v1.265a.177.177,0,0,0,.177.177h.589a.177.177,0,0,1,.177.177c0,2.177.029,3.531.029,3.531a1.947,1.947,0,0,0,1.589,1.824,4.5,4.5,0,0,0,1.206.147,5.59,5.59,0,0,0,1.412-.235.177.177,0,0,0,.118-.177v-1.559a.177.177,0,0,0-.235-.177l-.589.177a1.147,1.147,0,0,1-1.177-.265.618.618,0,0,1-.088-.177,4.148,4.148,0,0,1-.059-.736V210.5a.177.177,0,0,1,.177-.177h1.736a.177.177,0,0,0,.177-.177v-1.265a.177.177,0,0,0-.176-.177h-1.707A.177.177,0,0,1,425.778,208.554Z" transform="translate(-941.521 1486.85)"/></g><g class="a" transform="translate(1339 -1564)"><path class="b" d="M300.507,432.638l14.2-93,2.266.341-14.2,93Z" transform="translate(-652.908 1407.71)"/><rect class="c" width="1.719" height="120.173" transform="matrix(0.086, -0.996, 0.996, 0.086, -316.765, 1885.341)"/><rect class="c" width="2.287" height="42.474" transform="translate(-265.961 2012.732) rotate(-35.179)"/><rect class="c" width="81.134" height="2.291" transform="translate(-553.506 1933.039) rotate(-15.201)"/><rect class="c" width="81.424" height="2.283" transform="translate(-464.96 2053) rotate(-58.32)"/><rect class="c" width="2.287" height="81.435" transform="matrix(0.779, -0.627, 0.627, 0.779, -485.556, 1723.61)"/><path class="b" d="M299.362,405.311l-34.3-20.619,1.173-1.961,34.3,20.619Z" transform="translate(-692.87 1456.286)"/><rect class="c" width="115.494" height="2.286" transform="matrix(0.72, -0.694, 0.694, 0.72, -293.25, 1817.524)"/><path class="b" d="M283.813,512.91l20.463-91.815,2.229.492L286.042,513.4Z" transform="translate(-671.728 1499.533)"/><rect class="c" width="2.289" height="67.924" transform="matrix(0.516, -0.856, 0.856, 0.516, -242.455, 1951.609)"/><path class="b" d="M222.012,463.612a162.935,162.935,0,0,1,4.867-21.994,164.919,164.919,0,0,1,7.875-21.211,163.484,163.484,0,0,1,119.3-93.619l.411,2.246a161.677,161.677,0,0,0-125.4,113.231,160.391,160.391,0,0,0-4.795,21.679Z" transform="translate(-741.397 1393.219)"/><path class="b" d="M286.249,350.5l-8.879-40.875,2.239-.483,8.878,40.875Z" transform="translate(-678.991 1373.324)"/><path class="b" d="M224.422,383.862l79.068,19.263-.537,2.221-79.068-19.263Z" transform="translate(-739.285 1457.561)"/><path class="b" d="M236.4,472.668l65.47-48.127,1.351,1.845-65.469,48.128Z" transform="translate(-725.182 1503.418)"/><rect class="c" width="2.287" height="80.129" transform="translate(-340.441 1960.066) rotate(-12.937)"/><path class="b" d="M333.4,403.545l74.7-28.991.825,2.132-74.7,28.991Z" transform="translate(-615.827 1447.068)"/><path class="b" d="M274.794,312.7a203.2,203.2,0,0,1,133.568,11.928q3.737,1.688,7.327,3.48,3.612,1.8,7.171,3.757l-1.1,2.006q-3.472-1.905-7.09-3.712-3.6-1.8-7.248-3.444a200.785,200.785,0,0,0-132.073-11.792Z" transform="translate(-681.895 1370.377)"/><path class="b" d="M266.452,399.126a82.069,82.069,0,0,1,130.588-5.569l-1.764,1.459a79.8,79.8,0,0,0-126.943,5.408Z" transform="translate(-691.299 1435.017)"/><path class="b" d="M368.521,336.354a204.3,204.3,0,0,1,37.532,225.768,202.706,202.706,0,0,1-13.534,24.832l-1.927-1.227a200.086,200.086,0,0,0,13.383-24.553,202.85,202.85,0,0,0,9.9-26.3A201.644,201.644,0,0,0,366.866,337.93Z" transform="translate(-578.1 1404.004)"/><path class="b" d="M405.46,361.493a26.8,26.8,0,1,0-35.45,13.4A26.8,26.8,0,0,0,405.46,361.493Z" transform="translate(-592.345 1389.701)"/><path class="b" d="M352.458,393.632a18.677,18.677,0,1,0-24.7,9.343A18.678,18.678,0,0,0,352.458,393.632Z" transform="translate(-634.594 1438.854)"/><rect class="c" width="41.826" height="2.288" transform="translate(-283.326 1737.979) rotate(-62.193)"/><path class="b" d="M369.549,335.678a18.677,18.677,0,1,0-24.7,9.341A18.678,18.678,0,0,0,369.549,335.678Z" transform="translate(-615.327 1373.521)"/><path class="b" d="M345.491,342.5a8.121,8.121,0,1,0-10.743,4.061A8.121,8.121,0,0,0,345.491,342.5Z" transform="translate(-619.698 1398.012)"/><path class="b" d="M316.524,334.479a26.8,26.8,0,1,0-35.448,13.4A26.8,26.8,0,0,0,316.524,334.479Z" transform="translate(-692.602 1359.248)"/><path class="b" d="M293.626,335.418a8.121,8.121,0,1,0-10.743,4.061A8.122,8.122,0,0,0,293.626,335.418Z" transform="translate(-678.168 1390.025)"/><path class="b" d="M272.886,401.085a8.121,8.121,0,1,0-10.741,4.061A8.123,8.123,0,0,0,272.886,401.085Z" transform="translate(-701.547 1464.053)"/><path class="b" d="M262.643,409.609a26.8,26.8,0,1,0-35.448,13.4A26.8,26.8,0,0,0,262.643,409.609Z" transform="translate(-753.347 1443.945)"/><path class="b" d="M290.9,440.264a16.242,16.242,0,1,0-21.484,8.124A16.239,16.239,0,0,0,290.9,440.264Z" transform="translate(-698.74 1495.298)"/><path class="b" d="M275.193,472.935a26.8,26.8,0,1,0-35.448,13.4A26.8,26.8,0,0,0,275.193,472.935Z" transform="translate(-739.197 1515.332)"/><path class="b" d="M353.875,502.143a26.8,26.8,0,1,0-35.45,13.4A26.8,26.8,0,0,0,353.875,502.143Z" transform="translate(-650.498 1548.258)"/><path class="b" d="M418.442,476.907a26.8,26.8,0,1,0-35.45,13.4A26.8,26.8,0,0,0,418.442,476.907Z" transform="translate(-577.71 1519.811)"/><path class="b" d="M392.783,390.089a16.243,16.243,0,1,0-21.486,8.122A16.245,16.245,0,0,0,392.783,390.089Z" transform="translate(-583.888 1438.733)"/><path class="b" d="M277.042,390.838A8.122,8.122,0,1,0,266.3,394.9,8.125,8.125,0,0,0,277.042,390.838Z" transform="translate(-696.864 1452.501)"/><path class="b" d="M414.718,406.262a157.849,157.849,0,0,1-14.532,59.324,165.666,165.666,0,0,1-58.965,68.478l-1.261-1.9a163.415,163.415,0,0,0,58.15-67.532,155.384,155.384,0,0,0,14.323-58.465Z" transform="translate(-608.432 1482.702)"/><path class="b" d="M413.009,434.278a26.8,26.8,0,1,0-35.45,13.4A26.8,26.8,0,0,0,413.009,434.278Z" transform="translate(-583.837 1471.753)"/><path class="b" d="M353.7,472.305a8.121,8.121,0,1,0-10.743,4.061A8.123,8.123,0,0,0,353.7,472.305Z" transform="translate(-610.45 1544.34)"/><path class="b" d="M310.941,458.922q-2-.463-3.963-1.13-1.943-.657-3.848-1.515A42.043,42.043,0,0,1,282.1,400.67a42.519,42.519,0,0,1,3.559-6.359,41.7,41.7,0,0,1,4.584-5.631l1.638,1.593a39.318,39.318,0,0,0-4.333,5.318,40.157,40.157,0,0,0-3.361,6.018,39.748,39.748,0,0,0,19.882,52.581q1.8.817,3.64,1.436,1.863.629,3.74,1.066Z" transform="translate(-677.861 1462.992)"/><path class="b" d="M301.919,383a41.484,41.484,0,0,1,4.935,1.221,42.909,42.909,0,0,1,4.776,1.817,42.064,42.064,0,0,1,24.726,39.928q-.073,1.876-.317,3.763-.242,1.867-.653,3.721l-2.227-.494c.26-1.168.464-2.342.615-3.514s.253-2.37.3-3.555a39.739,39.739,0,0,0-23.381-37.76,39.428,39.428,0,0,0-4.514-1.721,39.825,39.825,0,0,0-4.665-1.159Z" transform="translate(-651.78 1456.593)"/><path class="b" d="M423.257,429.614a122.639,122.639,0,0,1-139.652,62.028l.572-2.21a120.34,120.34,0,0,0,137.046-60.873Z" transform="translate(-671.962 1507.948)"/><path class="b" d="M267.139,364.072a123.3,123.3,0,0,1,42.612-17.006,122,122,0,0,1,45.705-.2l-.411,2.246A120.508,120.508,0,0,0,268.367,366Z" transform="translate(-690.524 1413.532)"/><path class="b" d="M476.472,481.579a203.939,203.939,0,0,1-203.9,18.929q-7.266-3.357-14.17-7.224-6.985-3.909-13.521-8.262l1.264-1.906q6.49,4.321,13.368,8.171,6.8,3.8,14.019,7.146a201.615,201.615,0,0,0,201.614-18.716Z" transform="translate(-715.616 1565.617)"/><path class="b" d="M265.255,345.725a18.676,18.676,0,1,0-24.7,9.343A18.674,18.674,0,0,0,265.255,345.725Z" transform="translate(-732.897 1384.849)"/><path class="b" d="M269.843,435.03a18.678,18.678,0,1,0-24.707,9.341A18.679,18.679,0,0,0,269.843,435.03Z" transform="translate(-727.729 1485.522)"/><path class="b" d="M364.563,386.378a82.023,82.023,0,0,1-58.742,114.69l-.438-2.248a79.722,79.722,0,0,0,57.106-111.491Z" transform="translate(-647.411 1460.397)"/><path class="b" d="M305.662,428.854a8.121,8.121,0,1,0-10.743,4.063A8.12,8.12,0,0,0,305.662,428.854Z" transform="translate(-664.598 1495.359)"/><path class="b" d="M308.48,410.3a18.676,18.676,0,1,0-24.7,9.341A18.676,18.676,0,0,0,308.48,410.3Z" transform="translate(-684.169 1457.639)"/><path class="b" d="M300.963,383.19a26.8,26.8,0,1,0-35.445,13.4A26.794,26.794,0,0,0,300.963,383.19Z" transform="translate(-710.142 1414.163)"/><path class="b" d="M345.383,371.224a26.8,26.8,0,1,0-35.448,13.4A26.795,26.795,0,0,0,345.383,371.224Z" transform="translate(-660.069 1400.672)"/><path class="b" d="M286.681,508.827a26.8,26.8,0,1,0-35.448,13.4A26.8,26.8,0,0,0,286.681,508.827Z" transform="translate(-726.245 1555.794)"/><path class="b" d="M312.642,475.756a18.677,18.677,0,1,0-24.707,9.341A18.679,18.679,0,0,0,312.642,475.756Z" transform="translate(-679.481 1531.434)"/><path class="b" d="M373.954,449.5a18.677,18.677,0,1,0-24.7,9.343A18.674,18.674,0,0,0,373.954,449.5Z" transform="translate(-610.361 1501.838)"/><path class="b" d="M345.283,464.739a26.8,26.8,0,1,0-35.448,13.4A26.8,26.8,0,0,0,345.283,464.739Z" transform="translate(-660.184 1506.093)"/><path class="b" d="M344.219,421.685a18.677,18.677,0,1,0-24.707,9.343A18.676,18.676,0,0,0,344.219,421.685Z" transform="translate(-643.883 1470.48)"/><path class="b" d="M312.746,391.081A8.121,8.121,0,1,0,302,395.145,8.117,8.117,0,0,0,312.746,391.081Z" transform="translate(-656.612 1452.777)"/><path class="b" d="M345.3,396.328a8.121,8.121,0,1,0-10.743,4.063A8.122,8.122,0,0,0,345.3,396.328Z" transform="translate(-619.913 1458.69)"/><path class="b" d="M380.006,497.984a18.677,18.677,0,1,0-24.707,9.339A18.679,18.679,0,0,0,380.006,497.984Z" transform="translate(-603.538 1556.49)"/><path class="b" d="M233.037,445.031a18.677,18.677,0,1,0-24.707,9.341A18.679,18.679,0,0,0,233.037,445.031Z" transform="translate(-769.219 1496.796)"/><path class="b" d="M279.862,458.674a8.122,8.122,0,1,0-10.743,4.063A8.123,8.123,0,0,0,279.862,458.674Z" transform="translate(-693.685 1528.974)"/><path class="b" d="M206.979,532.645a202.5,202.5,0,0,1-4.755-43.131,204.578,204.578,0,0,1,4.535-43.308q1.611-7.556,3.767-14.906,1.79-6.124,3.927-12.03l-.026-.011a202.705,202.705,0,0,1,19.048-38.985,204.929,204.929,0,0,1,27-34.171q5.441-5.562,11.151-10.581,5.779-5.09,11.868-9.684l1.381,1.827q-6,4.528-11.736,9.575-5.686,5.007-11.037,10.466a202.357,202.357,0,0,0-26.7,33.786,200.092,200.092,0,0,0-17.92,36.071l.023.008q-2.652,7.059-4.795,14.364-2.112,7.215-3.723,14.745a202.526,202.526,0,0,0-4.491,42.834,200.125,200.125,0,0,0,4.7,42.638Z" transform="translate(-763.705 1392.149)"/><path class="b" d="M273.45,456.566a81.562,81.562,0,0,1-12.281-29.512,82.48,82.48,0,0,1-.053-32.089l2.249.438a80.225,80.225,0,0,0,.051,31.2,79.351,79.351,0,0,0,11.932,28.687Z" transform="translate(-699.061 1470.077)"/><path class="b" d="M335.233,334.706a162.492,162.492,0,0,1,42.661,33.1A164.292,164.292,0,0,1,407.511,413.2l-2.1.915a161.037,161.037,0,0,0-71.265-77.4Z" transform="translate(-614.984 1402.146)"/><path class="b" d="M293.3,488.382a122.567,122.567,0,0,1-20-16.551q-3.887-3.979-7.4-8.292l-.021.019a122.974,122.974,0,0,1-23.443-46.046l2.212-.583a121.055,121.055,0,0,0,9.116,23.832q2.463,4.834,5.359,9.447l.006,0a120.8,120.8,0,0,0,35.433,36.269Z" transform="translate(-718.374 1494.838)"/><path class="b" d="M331.667,513.7a162.9,162.9,0,0,1-75.235-41.3,165.216,165.216,0,0,1-11.739-12.553,163.264,163.264,0,0,1-10.322-13.64l1.887-1.281a161.036,161.036,0,0,0,10.181,13.453,161.852,161.852,0,0,0,111.227,57.127,160.384,160.384,0,0,0,42.576-2.4l.43,2.248a162.635,162.635,0,0,1-69-1.672Z" transform="translate(-727.463 1526.406)"/><path class="d" d="M349.544,589.878a1.711,1.711,0,1,0,1.711,1.711,1.711,1.711,0,0,0-1.711-1.711Zm-7.659,2.2a7.17,7.17,0,1,0,7.17,7.17,7.252,7.252,0,0,0-7.089-7.17Zm0,11.815a4.6,4.6,0,1,1,.081,0ZM356.47,593.3a8.8,8.8,0,0,0-8.8-8.8H336.1a8.8,8.8,0,0,0-8.8,8.8v11.57a8.8,8.8,0,0,0,8.8,8.8h11.57a8.8,8.8,0,0,0,8.8-8.8Zm-2.77,11.57a6.03,6.03,0,0,1-6.03,6.03H336.1a6.03,6.03,0,0,1-6.03-6.03V593.3a6.03,6.03,0,0,1,6.03-6.03h11.57a6.03,6.03,0,0,1,6.03,6.03Z" transform="translate(-552.885 1141.315)"/><path class="d" d="M337.462,586.957a.782.782,0,1,0,.782.782A.782.782,0,0,0,337.462,586.957Zm-3.5,1.005a3.276,3.276,0,1,0,3.276,3.276A3.313,3.313,0,0,0,334,587.962Zm0,5.4a2.1,2.1,0,1,1,.037,0Zm6.663-4.839a4.02,4.02,0,0,0-4.02-4.02H331.32a4.02,4.02,0,0,0-4.02,4.02v5.286a4.02,4.02,0,0,0,4.02,4.02h5.286a4.02,4.02,0,0,0,4.02-4.02Zm-1.266,5.286a2.754,2.754,0,0,1-2.754,2.755H331.32a2.754,2.754,0,0,1-2.754-2.755V588.52a2.754,2.754,0,0,1,2.754-2.755h5.286a2.754,2.754,0,0,1,2.754,2.755Z" transform="translate(-756.963 1338.237)"/><path class="d" d="M343.1,588.32a1.216,1.216,0,1,0,1.216,1.216,1.216,1.216,0,0,0-1.216-1.216Zm-5.441,1.563a5.094,5.094,0,1,0,5.094,5.094,5.152,5.152,0,0,0-5.036-5.094Zm0,8.393a3.271,3.271,0,1,1,.057,0Zm10.361-7.525a6.251,6.251,0,0,0-6.251-6.251h-8.219a6.251,6.251,0,0,0-6.251,6.251v8.219a6.251,6.251,0,0,0,6.251,6.251h8.219a6.251,6.251,0,0,0,6.251-6.251Zm-1.968,8.219a4.283,4.283,0,0,1-4.283,4.283h-8.219a4.283,4.283,0,0,1-4.283-4.283v-8.219a4.283,4.283,0,0,1,4.283-4.283h8.219a4.283,4.283,0,0,1,4.283,4.283Z" transform="translate(-658.661 1445.539)"/><path class="d" d="M633.206,600.584a5.774,5.774,0,0,1-2.5-1.168,12,12,0,0,1-2,5.451.556.556,0,0,1-1-.334c-.167-3.337,1-5.951,1.557-8.732-1.057-1.78.111-5.451,2.392-4.561s-2.392,6.73,1.057,7.4,5.117-6.285,2.892-8.621c-3.282-3.282-9.511-.056-8.732,4.672.167.89.89,1.335.779,2.225a.779.779,0,0,1-1.112.612c-1.446-.667-1.891-2.169-1.836-4a6.971,6.971,0,0,1,6.341-6.452c3.115-.334,7.62,1.446,8.121,5.117s-1.78,8.677-5.951,8.343Z" transform="translate(-931.2 1229.411)"/><path class="d" d="M633.206,600.584a5.774,5.774,0,0,1-2.5-1.168,12,12,0,0,1-2,5.451.556.556,0,0,1-1-.334c-.167-3.337,1-5.951,1.557-8.732-1.057-1.78.111-5.451,2.392-4.561s-2.392,6.73,1.057,7.4,5.117-6.285,2.892-8.621c-3.282-3.282-9.511-.056-8.732,4.672.167.89.89,1.335.779,2.225a.779.779,0,0,1-1.112.612c-1.446-.667-1.891-2.169-1.836-4a6.971,6.971,0,0,1,6.341-6.452c3.115-.334,7.62,1.446,8.121,5.117s-1.78,8.677-5.951,8.343Z" transform="translate(-1033.2 1085.411)"/><path class="d" d="M185.74,597.573a5.373,5.373,0,0,0-5.373-5.373H166.573a5.373,5.373,0,0,0-5.373,5.373v6.462a5.373,5.373,0,0,0,5.373,5.373H180.44a5.373,5.373,0,0,0,5.373-5.373Zm-8.712,3.558-5.518,3.049c-.218.145-.436-.073-.436-.291v-6.244c0-.29.218-.436.436-.29l5.59,3.195a.363.363,0,0,1-.073.581Z" transform="translate(-367.556 1294.246)"/><path class="d" d="M177.315,595.728a3.528,3.528,0,0,0-3.528-3.528h-9.059a3.528,3.528,0,0,0-3.528,3.528v4.243a3.528,3.528,0,0,0,3.528,3.528h9.106a3.528,3.528,0,0,0,3.528-3.528Zm-5.721,2.336-3.623,2c-.143.1-.286-.048-.286-.191v-4.1c0-.191.143-.286.286-.191l3.671,2.1a.238.238,0,0,1-.048.381Z" transform="translate(-562.331 1262.2)"/><path class="e" d="M285.689,595.57v10.2a.246.246,0,0,0,.246.246h3.81a.246.246,0,0,0,.246-.246V595.447h2.765A.246.246,0,0,0,293,595.2l.246-3.134a.246.246,0,0,0-.246-.307h-3.011v-2.212a.922.922,0,0,1,.922-.922H293a.246.246,0,0,0,.246-.246v-3.134A.246.246,0,0,0,293,585h-3.564a3.81,3.81,0,0,0-3.81,3.81v2.95h-1.782a.246.246,0,0,0-.246.246v3.134a.246.246,0,0,0,.246.246h1.844Z" transform="translate(-472.172 1390.592)"/><path class="e" d="M285.689,595.57v10.2a.246.246,0,0,0,.246.246h3.81a.246.246,0,0,0,.246-.246V595.447h2.765A.246.246,0,0,0,293,595.2l.246-3.134a.246.246,0,0,0-.246-.307h-3.011v-2.212a.922.922,0,0,1,.922-.922H293a.246.246,0,0,0,.246-.246v-3.134A.246.246,0,0,0,293,585h-3.564a3.81,3.81,0,0,0-3.81,3.81v2.95h-1.782a.246.246,0,0,0-.246.246v3.134a.246.246,0,0,0,.246.246h1.844Z" transform="translate(-805.172 1248.592)"/><path class="e" d="M286.208,598.191v12.731a.307.307,0,0,0,.307.307h4.755a.307.307,0,0,0,.307-.307V598.038h3.451a.307.307,0,0,0,.307-.307l.307-3.911a.307.307,0,0,0-.307-.383h-3.758v-2.761a1.15,1.15,0,0,1,1.15-1.15h2.608a.307.307,0,0,0,.307-.307v-3.911a.307.307,0,0,0-.307-.307h-4.448a4.755,4.755,0,0,0-4.755,4.755v3.681h-2.224a.307.307,0,0,0-.307.307v3.911a.307.307,0,0,0,.307.307h2.3Z" transform="translate(-629.369 1160.985)"/><path class="e" d="M285.319,593.7v8.393a.2.2,0,0,0,.2.2h3.135a.2.2,0,0,0,.2-.2V593.6h2.275a.2.2,0,0,0,.2-.2l.2-2.578a.2.2,0,0,0-.2-.253h-2.477v-1.82a.758.758,0,0,1,.758-.758h1.719a.2.2,0,0,0,.2-.2V585.2a.2.2,0,0,0-.2-.2H288.4a3.135,3.135,0,0,0-3.135,3.135v2.427H283.8a.2.2,0,0,0-.2.2v2.578a.2.2,0,0,0,.2.2h1.517Z" transform="translate(-672.316 1406.454)"/><g transform="translate(-470.524 1451.619)"><path class="d" d="M239.616,590a7.088,7.088,0,0,1-1.76.517c.259-.052.673-.569.88-.776a3.208,3.208,0,0,0,.569-1.035c0-.052.052-.052,0-.1h-.1a8.9,8.9,0,0,1-2.07.776h-.155l-.207-.207a3.673,3.673,0,0,0-.983-.621,3.517,3.517,0,0,0-1.553-.259,3.674,3.674,0,0,0-1.449.414,3.778,3.778,0,0,0-1.19.983,3.623,3.623,0,0,0-.724,1.4,3.829,3.829,0,0,0-.052,1.5c0,.1,0,.1-.052.1a11.111,11.111,0,0,1-7.142-3.623c-.1-.1-.1-.1-.207,0a3.612,3.612,0,0,0,.621,4.244l.414.362a3.622,3.622,0,0,1-1.4-.362c-.1-.052-.1,0-.155.052a2.175,2.175,0,0,0,0,.414,3.674,3.674,0,0,0,2.277,2.9l.466.155a4.09,4.09,0,0,1-1.346.052c-.1,0-.155.052-.1.1a3.743,3.743,0,0,0,2.846,2.381h.362a4.9,4.9,0,0,1-1.915,1.035,6.935,6.935,0,0,1-2.95.362h-.259c-.052.052,0,.052.052.1l.621.362a9.735,9.735,0,0,0,1.967.776,10.405,10.405,0,0,0,10.143-2.381c2.639-2.639,2.795-4.916,2.795-7.763,0-.1.155-.155.207-.207a6.831,6.831,0,0,0,1.4-1.449.414.414,0,0,0,.1-.259h-.052Z" transform="translate(0 0)"/><path class="e" d="M232.4,615.7Z" transform="translate(-4.893 -13.226)"/><path class="e" d="M232.4,615.7Z" transform="translate(-4.893 -13.226)"/><path class="e" d="M233.5,615.8Z" transform="translate(-5.424 -13.275)"/><path class="e" d="M245.3,588.4Z" transform="translate(-11.117 -0.054)"/></g><g transform="translate(-706.524 1317.619)"><path class="d" d="M239.616,590a7.088,7.088,0,0,1-1.76.517c.259-.052.673-.569.88-.776a3.208,3.208,0,0,0,.569-1.035c0-.052.052-.052,0-.1h-.1a8.9,8.9,0,0,1-2.07.776h-.155l-.207-.207a3.673,3.673,0,0,0-.983-.621,3.517,3.517,0,0,0-1.553-.259,3.674,3.674,0,0,0-1.449.414,3.778,3.778,0,0,0-1.19.983,3.623,3.623,0,0,0-.724,1.4,3.829,3.829,0,0,0-.052,1.5c0,.1,0,.1-.052.1a11.111,11.111,0,0,1-7.142-3.623c-.1-.1-.1-.1-.207,0a3.612,3.612,0,0,0,.621,4.244l.414.362a3.622,3.622,0,0,1-1.4-.362c-.1-.052-.1,0-.155.052a2.175,2.175,0,0,0,0,.414,3.674,3.674,0,0,0,2.277,2.9l.466.155a4.09,4.09,0,0,1-1.346.052c-.1,0-.155.052-.1.1a3.743,3.743,0,0,0,2.846,2.381h.362a4.9,4.9,0,0,1-1.915,1.035,6.935,6.935,0,0,1-2.95.362h-.259c-.052.052,0,.052.052.1l.621.362a9.735,9.735,0,0,0,1.967.776,10.405,10.405,0,0,0,10.143-2.381c2.639-2.639,2.795-4.916,2.795-7.763,0-.1.155-.155.207-.207a6.831,6.831,0,0,0,1.4-1.449.414.414,0,0,0,.1-.259h-.052Z" transform="translate(0 0)"/><path class="e" d="M232.4,615.7Z" transform="translate(-4.893 -13.226)"/><path class="e" d="M232.4,615.7Z" transform="translate(-4.893 -13.226)"/><path class="e" d="M233.5,615.8Z" transform="translate(-5.424 -13.275)"/><path class="e" d="M245.3,588.4Z" transform="translate(-11.117 -0.054)"/></g><g transform="translate(-492.524 1106.619)"><path class="d" d="M239.616,590a7.088,7.088,0,0,1-1.76.517c.259-.052.673-.569.88-.776a3.208,3.208,0,0,0,.569-1.035c0-.052.052-.052,0-.1h-.1a8.9,8.9,0,0,1-2.07.776h-.155l-.207-.207a3.673,3.673,0,0,0-.983-.621,3.517,3.517,0,0,0-1.553-.259,3.674,3.674,0,0,0-1.449.414,3.778,3.778,0,0,0-1.19.983,3.623,3.623,0,0,0-.724,1.4,3.829,3.829,0,0,0-.052,1.5c0,.1,0,.1-.052.1a11.111,11.111,0,0,1-7.142-3.623c-.1-.1-.1-.1-.207,0a3.612,3.612,0,0,0,.621,4.244l.414.362a3.622,3.622,0,0,1-1.4-.362c-.1-.052-.1,0-.155.052a2.175,2.175,0,0,0,0,.414,3.674,3.674,0,0,0,2.277,2.9l.466.155a4.09,4.09,0,0,1-1.346.052c-.1,0-.155.052-.1.1a3.743,3.743,0,0,0,2.846,2.381h.362a4.9,4.9,0,0,1-1.915,1.035,6.935,6.935,0,0,1-2.95.362h-.259c-.052.052,0,.052.052.1l.621.362a9.735,9.735,0,0,0,1.967.776,10.405,10.405,0,0,0,10.143-2.381c2.639-2.639,2.795-4.916,2.795-7.763,0-.1.155-.155.207-.207a6.831,6.831,0,0,0,1.4-1.449.414.414,0,0,0,.1-.259h-.052Z" transform="translate(0 0)"/><path class="e" d="M232.4,615.7Z" transform="translate(-4.893 -13.226)"/><path class="e" d="M232.4,615.7Z" transform="translate(-4.893 -13.226)"/><path class="e" d="M233.5,615.8Z" transform="translate(-5.424 -13.275)"/><path class="e" d="M245.3,588.4Z" transform="translate(-11.117 -0.054)"/></g><g transform="translate(-661.15 1340.063)"><path class="e" d="M107.249,585a8.237,8.237,0,0,0-6.9,12.713l-1.238,2.762a.714.714,0,0,0,.667,1h.19l3.428-.952A8.237,8.237,0,1,0,107.249,585Zm0,15.046a6.809,6.809,0,0,1-3.428-.9l-.381-.1H103.3l-2.238.619.762-1.714a.714.714,0,0,0-.1-.714,6.809,6.809,0,1,1,5.523,2.809Z" transform="translate(0)"/><path class="e" d="M115.088,599.346a1.429,1.429,0,0,0-1.19-.286c-.333.143-.524.619-.714.857a.286.286,0,0,1-.381.1,5.428,5.428,0,0,1-2.714-2.333.333.333,0,0,1,.048-.476,1.856,1.856,0,0,0,.476-.809,1.762,1.762,0,0,0-.238-.952,2.238,2.238,0,0,0-.714-1.047.952.952,0,0,0-1.048.143,2.1,2.1,0,0,0-.714,1.666,2.379,2.379,0,0,0,.048.524,4.382,4.382,0,0,0,.524,1.19l.524.809a8.188,8.188,0,0,0,2.285,2.143,7,7,0,0,0,1.428.667,3.19,3.19,0,0,0,1.666.286,2.047,2.047,0,0,0,1.524-1.143,1,1,0,0,0,.048-.571C115.945,599.775,115.421,599.537,115.088,599.346Z" transform="translate(-4.648 -4.871)"/></g><g transform="translate(-545.352 1188.855)"><path class="e" d="M110.452,585a11.444,11.444,0,0,0-9.592,17.663L99.14,606.5a.992.992,0,0,0,.926,1.389h.265l4.763-1.323A11.444,11.444,0,1,0,110.452,585Zm0,20.9a9.461,9.461,0,0,1-4.763-1.257l-.529-.132h-.2l-3.109.86,1.058-2.381a.992.992,0,0,0-.132-.992,9.46,9.46,0,1,1,7.674,3.9Z"/><path class="e" d="M117.888,601.312a1.985,1.985,0,0,0-1.654-.4c-.463.2-.728.86-.992,1.191a.4.4,0,0,1-.529.132A7.541,7.541,0,0,1,110.942,599a.463.463,0,0,1,.066-.662,2.579,2.579,0,0,0,.662-1.125,2.448,2.448,0,0,0-.331-1.323,3.109,3.109,0,0,0-.992-1.455,1.323,1.323,0,0,0-1.455.2,2.91,2.91,0,0,0-.992,2.315,3.306,3.306,0,0,0,.066.728,6.087,6.087,0,0,0,.728,1.654l.728,1.125a11.375,11.375,0,0,0,3.175,2.977,9.724,9.724,0,0,0,1.985.926,4.433,4.433,0,0,0,2.315.4,2.844,2.844,0,0,0,2.117-1.588,1.39,1.39,0,0,0,.066-.794C119.078,601.907,118.351,601.576,117.888,601.312Z" transform="translate(-3.003 -3.147)"/></g><path class="d" d="M33.8,597.538v-.243a.649.649,0,0,1,.365-.243,4.078,4.078,0,0,0,2.716-2.108c.649-1.054.446-1.094-.527-1.419h-.162a2.108,2.108,0,0,1-.608-.324c-.446-.365-.162-.932.324-1.054s.689.162,1.054.2.324-.041.324-.324A12.523,12.523,0,0,1,37.245,590a3.4,3.4,0,0,1,1.743-2.919,4.459,4.459,0,0,1,4.783,0,3.405,3.405,0,0,1,1.743,2.635,11.674,11.674,0,0,1,0,2.27c-.041.324.041.405.365.324a1.63,1.63,0,0,1,1.176-.122.649.649,0,0,1,.405.568.608.608,0,0,1-.243.446,2.392,2.392,0,0,1-.689.365l-.567.2c-.365.162-.486.405-.284.77a4.208,4.208,0,0,0,2.919,2.554.689.689,0,0,1,.405.243v.243a1.1,1.1,0,0,1-.649.527,3,3,0,0,1-.851.243.649.649,0,0,0-.689.649c-.041.405-.2.446-.608.446H45.92a2.635,2.635,0,0,0-2.27.486l-.405.284a3.121,3.121,0,0,1-3.486.122l-.932-.608a2.109,2.109,0,0,0-.851-.324,5.475,5.475,0,0,0-1.459.081c-.243.041-.486-.041-.486-.284a1.092,1.092,0,0,0-.932-.811,2.636,2.636,0,0,1-.689-.2A1.054,1.054,0,0,1,33.8,597.538Z" transform="translate(-248.05 1228.58)"/><path class="d" d="M33.8,602.279v-.347a.925.925,0,0,1,.52-.346,5.812,5.812,0,0,0,3.87-3c.924-1.5.635-1.56-.751-2.022h-.231a3,3,0,0,1-.867-.462c-.635-.52-.231-1.329.462-1.5s.982.231,1.5.289.462-.058.462-.462a17.847,17.847,0,0,1-.058-2.888,4.852,4.852,0,0,1,2.484-4.159,6.354,6.354,0,0,1,6.817,0,4.852,4.852,0,0,1,2.484,3.755,16.636,16.636,0,0,1,0,3.235c-.058.462.058.578.52.462a2.323,2.323,0,0,1,1.675-.173.924.924,0,0,1,.578.809.866.866,0,0,1-.347.635,3.409,3.409,0,0,1-.982.52l-.809.289c-.52.231-.693.578-.4,1.1a6,6,0,0,0,4.159,3.639.983.983,0,0,1,.578.347v.347a1.56,1.56,0,0,1-.924.751,4.275,4.275,0,0,1-1.213.347.924.924,0,0,0-.982.924c-.058.578-.289.635-.867.635h-.4a3.756,3.756,0,0,0-3.235.693l-.578.4a4.448,4.448,0,0,1-4.968.173l-1.329-.866a3.005,3.005,0,0,0-1.213-.462,7.8,7.8,0,0,0-2.08.116c-.347.058-.693-.058-.693-.4a1.556,1.556,0,0,0-1.329-1.155,3.757,3.757,0,0,1-.982-.289A1.5,1.5,0,0,1,33.8,602.279Z" transform="translate(-534.282 1381.514)"/><path class="d" d="M515.323,584.97a9.789,9.789,0,1,0,8.883,8.883,9.789,9.789,0,0,0-8.883-8.883Zm5.545,4.922a8.035,8.035,0,0,1,1.584,4.414.17.17,0,0,1-.17.17,14.767,14.767,0,0,0-5.092-.17l-.17-.113-.566-1.245a.17.17,0,0,1,.057-.17,13.58,13.58,0,0,0,4.074-2.829.17.17,0,0,1,.283,0Zm-1.414-1.245a11.826,11.826,0,0,1-3.678,2.546.17.17,0,0,1-.17-.056,30.984,30.984,0,0,0-2.659-4.074.17.17,0,0,1,.113-.226l1.415-.113a8.035,8.035,0,0,1,4.979,1.754.17.17,0,0,1-.057.17Zm-8.374-1.132a28.117,28.117,0,0,1,2.829,4.13.17.17,0,0,1-.113.226,29.146,29.146,0,0,1-7.016.962.17.17,0,0,1-.17-.17,8.091,8.091,0,0,1,4.244-5.206Zm-4.527,7.073A30.325,30.325,0,0,0,514.7,593.4h.17l.453,1.019a.17.17,0,0,1-.113.226,14.7,14.7,0,0,0-6.846,5.036.17.17,0,0,1-.226,0,7.583,7.583,0,0,1-1.754-5.036.17.17,0,0,1,.113,0Zm3.112,6.394a12.573,12.573,0,0,1,6.224-4.64.17.17,0,0,1,.17.113,30.843,30.843,0,0,1,1.415,5.6.17.17,0,0,1-.113.17,8.035,8.035,0,0,1-7.752-1.018.17.17,0,0,1,0-.17Zm9.449.057a32.495,32.495,0,0,0-1.3-4.923.169.169,0,0,1,.113-.226,13.463,13.463,0,0,1,4.3.283.17.17,0,0,1,.113.17,8.092,8.092,0,0,1-3,4.753.17.17,0,0,1-.283-.057Z" transform="translate(-830.688 1289.511)"/><path class="d" d="M518.116,584.981a12.354,12.354,0,1,0,11.212,11.212,12.354,12.354,0,0,0-11.212-11.212Zm7,6.213a10.14,10.14,0,0,1,2,5.57.214.214,0,0,1-.214.214,18.638,18.638,0,0,0-6.427-.214l-.214-.143-.714-1.571a.215.215,0,0,1,.072-.214,17.141,17.141,0,0,0,5.142-3.57.214.214,0,0,1,.357,0Zm-1.785-1.571a14.927,14.927,0,0,1-4.642,3.214.214.214,0,0,1-.214-.071,39.1,39.1,0,0,0-3.356-5.142.214.214,0,0,1,.143-.286l1.785-.143a10.141,10.141,0,0,1,6.284,2.214.214.214,0,0,1-.071.214Zm-10.569-1.428a35.488,35.488,0,0,1,3.571,5.213.214.214,0,0,1-.143.286,36.784,36.784,0,0,1-8.855,1.214.214.214,0,0,1-.214-.214,10.212,10.212,0,0,1,5.356-6.57Zm-5.713,8.927a38.273,38.273,0,0,0,10.284-1.5h.214l.571,1.286a.215.215,0,0,1-.143.286,18.552,18.552,0,0,0-8.641,6.356.214.214,0,0,1-.286,0,9.57,9.57,0,0,1-2.214-6.356.214.214,0,0,1,.143,0Zm3.928,8.07c2.357-3,4.928-5,7.855-5.856a.214.214,0,0,1,.214.143,38.929,38.929,0,0,1,1.785,7.07.214.214,0,0,1-.143.214,10.141,10.141,0,0,1-9.784-1.285.214.214,0,0,1,0-.214Zm11.926.072a41.017,41.017,0,0,0-1.643-6.213.214.214,0,0,1,.143-.286,16.994,16.994,0,0,1,5.427.357.215.215,0,0,1,.143.214,10.213,10.213,0,0,1-3.785,6,.214.214,0,0,1-.357-.071Z" transform="translate(-981.254 1456.946)"/><path class="d" d="M429.725,210.857V207.1a.4.4,0,0,0-.4-.4h-2.243a.4.4,0,0,0-.4.33c-.066.528-1.254,3.365-2.771,4.025a2.309,2.309,0,0,1-.924.2.4.4,0,0,0-.4.4v2.837a.4.4,0,0,0,.4.4h1.32a.4.4,0,0,1,.4.4c0,4.882.066,7.917.066,7.917a4.365,4.365,0,0,0,3.563,4.091,10.1,10.1,0,0,0,2.705.33,12.535,12.535,0,0,0,3.167-.528.4.4,0,0,0,.264-.4v-3.5a.4.4,0,0,0-.528-.4l-1.32.4a2.573,2.573,0,0,1-2.639-.594,1.386,1.386,0,0,1-.2-.4,9.305,9.305,0,0,1-.132-1.649v-5.344a.4.4,0,0,1,.4-.4h3.893a.4.4,0,0,0,.4-.4v-2.837a.4.4,0,0,0-.4-.4h-3.827a.4.4,0,0,1-.4-.33Z" transform="translate(-768.138 1744.393)"/><path class="d" d="M427.53,209.576v-2.6a.274.274,0,0,0-.274-.274H425.7a.274.274,0,0,0-.274.228c-.046.365-.867,2.328-1.917,2.785a1.6,1.6,0,0,1-.639.137.274.274,0,0,0-.274.274v1.963a.274.274,0,0,0,.274.274h.913a.274.274,0,0,1,.274.274c0,3.378.046,5.478.046,5.478a3.02,3.02,0,0,0,2.465,2.83,6.986,6.986,0,0,0,1.872.228,8.674,8.674,0,0,0,2.191-.365.274.274,0,0,0,.183-.274v-2.419a.274.274,0,0,0-.365-.274l-.913.274a1.78,1.78,0,0,1-1.826-.411.959.959,0,0,1-.137-.274,6.436,6.436,0,0,1-.091-1.141v-3.7a.274.274,0,0,1,.274-.274h2.693a.274.274,0,0,0,.274-.274v-1.963a.274.274,0,0,0-.274-.274H427.8a.274.274,0,0,1-.274-.228Z" transform="translate(-912.308 1507.615)"/></g></g></svg>